<svg version="1.1" xmlns="http://www.w3.org/2000/svg" viewBox="0 0 796.5254490508147 213.6679955118385" width="796.5254490508147" height="213.6679955118385">
  <!-- svg-source:excalidraw -->
  
  <defs>
    <style class="style-fonts">
      @font-face {
        font-family: "Virgil";
        src: url("https://excalidraw.com/Virgil.woff2");
      }
      @font-face {
        font-family: "Cascadia";
        src: url("https://excalidraw.com/Cascadia.woff2");
      }
      @font-face {
        font-family: "Assistant";
        src: url("https://excalidraw.com/Assistant-Regular.woff2");
      }
    </style>
    
  </defs>
  <rect x="0" y="0" width="796.5254490508147" height="213.6679955118385" fill="#ffffff"></rect><g stroke-linecap="round" transform="translate(54.06654722508222 43.003230673372215) rotate(0 83.0257972622149 73.8663676710098)"><path d="M0 0 C45.46 0, 90.93 0, 166.05 0 M0 0 C64.29 0, 128.57 0, 166.05 0 M166.05 0 C166.05 43.05, 166.05 86.09, 166.05 147.73 M166.05 0 C166.05 48.76, 166.05 97.51, 166.05 147.73 M166.05 147.73 C117.74 147.73, 69.43 147.73, 0 147.73 M166.05 147.73 C107.22 147.73, 48.39 147.73, 0 147.73 M0 147.73 C0 89.08, 0 30.43, 0 0 M0 147.73 C0 107.95, 0 68.17, 0 0" stroke="#1e1e1e" stroke-width="1" fill="none"></path></g><g transform="translate(119.29937573729705 107.66959834438201) rotate(0 17.79296875 9.2)"><text x="17.79296875" y="14.720312499999999" font-family="Helvetica, Segoe UI Emoji" font-size="16px" fill="#1e1e1e" text-anchor="middle" style="white-space: pre;" direction="ltr" dominant-baseline="alphabetic">Input</text></g><g transform="translate(-9.12270021865561 108.63692844787529) rotate(270 28.488693237304688 9.365993018649126)"><text x="0" y="14.98590696818842" font-family="Helvetica, Segoe UI Emoji" font-size="16.288683510694135px" fill="#1e1e1e" text-anchor="start" style="white-space: pre;" direction="ltr" dominant-baseline="alphabetic">seq_len</text></g><g transform="translate(223.04269109320683 114.72904259328705) rotate(270 79.57295989990234 9.365993018649126)"><text x="0" y="14.98590696818842" font-family="Helvetica, Segoe UI Emoji" font-size="16.288683510694135px" fill="#1e1e1e" text-anchor="start" style="white-space: pre;" direction="ltr" dominant-baseline="alphabetic">embedding dimension</text></g><g stroke-linecap="round" transform="translate(335.0542098456042 43.5941616147403) rotate(0 83.0257972622149 73.8663676710098)"><path d="M0 0 C51.23 0, 102.45 0, 166.05 0 M0 0 C46.09 0, 92.19 0, 166.05 0 M166.05 0 C166.05 33.49, 166.05 66.98, 166.05 147.73 M166.05 0 C166.05 44.71, 166.05 89.41, 166.05 147.73 M166.05 147.73 C117.6 147.73, 69.14 147.73, 0 147.73 M166.05 147.73 C118.56 147.73, 71.07 147.73, 0 147.73 M0 147.73 C0 95.99, 0 44.24, 0 0 M0 147.73 C0 88.67, 0 29.6, 0 0" stroke="#1e1e1e" stroke-width="1" fill="none"></path></g><g transform="translate(399.85735085781914 108.2605292857501) rotate(0 18.22265625 9.2)"><text x="18.22265625" y="14.720312499999999" font-family="Helvetica, Segoe UI Emoji" font-size="16px" fill="#1e1e1e" text-anchor="middle" style="white-space: pre;" direction="ltr" dominant-baseline="alphabetic">W_Q</text></g><g stroke-linecap="round" transform="translate(620.4738545263848 47.13974726294872) rotate(0 83.02579726221495 73.8663676710098)"><path d="M0 0 C52.37 0, 104.73 0, 166.05 0 M0 0 C51.47 0, 102.94 0, 166.05 0 M166.05 0 C166.05 52.83, 166.05 105.66, 166.05 147.73 M166.05 0 C166.05 47.38, 166.05 94.76, 166.05 147.73 M166.05 147.73 C126.37 147.73, 86.68 147.73, 0 147.73 M166.05 147.73 C127.37 147.73, 88.69 147.73, 0 147.73 M0 147.73 C0 115.43, 0 83.13, 0 0 M0 147.73 C0 100.72, 0 53.71, 0 0" stroke="#1e1e1e" stroke-width="1" fill="none"></path></g><g transform="translate(697.2769955385996 111.80611493395851) rotate(0 6.22265625 9.2)"><text x="6.22265625" y="14.720312499999999" font-family="Helvetica, Segoe UI Emoji" font-size="16px" fill="#1e1e1e" text-anchor="middle" style="white-space: pre;" direction="ltr" dominant-baseline="alphabetic">Q</text></g><g transform="translate(254.39213634886084 104.46004857565238) rotate(0 5 11.5)"><text x="0" y="18.400390625" font-family="Helvetica, Segoe UI Emoji" font-size="20px" fill="#1e1e1e" text-anchor="start" style="white-space: pre;" direction="ltr" dominant-baseline="alphabetic">x</text></g><g transform="translate(542.2666760915318 107.41470328249268) rotate(0 5.83984375 11.5)"><text x="0" y="18.400390625" font-family="Helvetica, Segoe UI Emoji" font-size="20px" fill="#1e1e1e" text-anchor="start" style="white-space: pre;" direction="ltr" dominant-baseline="alphabetic">=</text></g><g transform="translate(354.918847595085 10.590930941368129) rotate(0 63.75209045410162 9.365993018649128)"><text x="0" y="14.98590696818842" font-family="Helvetica, Segoe UI Emoji" font-size="16.288683510694135px" fill="#1e1e1e" text-anchor="start" style="white-space: pre;" direction="ltr" dominant-baseline="alphabetic">hidden dimension</text></g><g transform="translate(58.271515028309636 10) rotate(0 79.57295989990234 9.365993018649128)"><text x="0" y="14.98590696818842" font-family="Helvetica, Segoe UI Emoji" font-size="16.288683510694135px" fill="#1e1e1e" text-anchor="start" style="white-space: pre;" direction="ltr" dominant-baseline="alphabetic">embedding dimension</text></g><g transform="translate(639.7475609827067 10.590930589576587) rotate(0 63.75209045410156 9.365993018649128)"><text x="0" y="14.98590696818842" font-family="Helvetica, Segoe UI Emoji" font-size="16.288683510694135px" fill="#1e1e1e" text-anchor="start" style="white-space: pre;" direction="ltr" dominant-baseline="alphabetic">hidden dimension</text></g><g transform="translate(561.5522178086247 112.86234708069198) rotate(270 28.488693237304688 9.365993018649126)"><text x="0" y="14.98590696818842" font-family="Helvetica, Segoe UI Emoji" font-size="16.288683510694135px" fill="#1e1e1e" text-anchor="start" style="white-space: pre;" direction="ltr" dominant-baseline="alphabetic">seq_len</text></g></svg>