<svg version="1.1" xmlns="http://www.w3.org/2000/svg" viewBox="0 0 782.3191535746073 203.3572709747541" width="782.3191535746073" height="203.3572709747541">
  <!-- svg-source:excalidraw -->
  
  <defs>
    <style class="style-fonts">
      @font-face {
        font-family: "Virgil";
        src: url("https://excalidraw.com/Virgil.woff2");
      }
      @font-face {
        font-family: "Cascadia";
        src: url("https://excalidraw.com/Cascadia.woff2");
      }
      @font-face {
        font-family: "Assistant";
        src: url("https://excalidraw.com/Assistant-Regular.woff2");
      }
    </style>
    
  </defs>
  <rect x="0" y="0" width="782.3191535746073" height="203.3572709747541" fill="#ffffff"></rect><g stroke-linecap="round" transform="translate(52.742026970014194 45.62453515956395) rotate(0 20.091652006514664 73.86636767100981)"><path d="M0 0 L40.18 0 L40.18 147.73 L0 147.73" stroke="none" stroke-width="0" fill="#ffc9c9"></path><path d="M0 0 C11.42 0, 22.84 0, 40.18 0 M0 0 C10.36 0, 20.71 0, 40.18 0 M40.18 0 C40.18 42.28, 40.18 84.56, 40.18 147.73 M40.18 0 C40.18 50.32, 40.18 100.64, 40.18 147.73 M40.18 147.73 C28.27 147.73, 16.36 147.73, 0 147.73 M40.18 147.73 C25.9 147.73, 11.61 147.73, 0 147.73 M0 147.73 C0 110.01, 0 72.3, 0 0 M0 147.73 C0 114.13, 0 80.52, 0 0" stroke="#1e1e1e" stroke-width="1" fill="none"></path></g><g transform="translate(64.38446022652897 110.29090283057349) rotate(0 8.44921875 9.200000000000045)"><text x="8.44921875" y="14.720312499999999" font-family="Helvetica, Segoe UI Emoji" font-size="16px" fill="#1e1e1e" text-anchor="middle" style="white-space: pre;" direction="ltr" dominant-baseline="alphabetic">s0</text></g><g stroke-linecap="round" transform="translate(92.92533097001387 45.62453515956395) rotate(0 20.091652006514664 73.86636767100981)"><path d="M0 0 L40.18 0 L40.18 147.73 L0 147.73" stroke="none" stroke-width="0" fill="#b2f2bb"></path><path d="M0 0 C12.82 0, 25.65 0, 40.18 0 M0 0 C10.4 0, 20.79 0, 40.18 0 M40.18 0 C40.18 53.58, 40.18 107.16, 40.18 147.73 M40.18 0 C40.18 56.21, 40.18 112.43, 40.18 147.73 M40.18 147.73 C29.53 147.73, 18.88 147.73, 0 147.73 M40.18 147.73 C24.52 147.73, 8.86 147.73, 0 147.73 M0 147.73 C0 113.12, 0 78.5, 0 0 M0 147.73 C0 102.03, 0 56.34, 0 0" stroke="#1e1e1e" stroke-width="1" fill="none"></path></g><g transform="translate(104.56776422652865 110.29090283057349) rotate(0 8.44921875 9.200000000000045)"><text x="8.44921875" y="14.720312499999999" font-family="Helvetica, Segoe UI Emoji" font-size="16px" fill="#1e1e1e" text-anchor="middle" style="white-space: pre;" direction="ltr" dominant-baseline="alphabetic">s1</text></g><g stroke-linecap="round" transform="translate(132.92533097001387 45.62453415956452) rotate(0 20.091652006514664 73.86636767100981)"><path d="M0 0 L40.18 0 L40.18 147.73 L0 147.73" stroke="none" stroke-width="0" fill="#a5d8ff"></path><path d="M0 0 C8.57 0, 17.14 0, 40.18 0 M0 0 C14.94 0, 29.87 0, 40.18 0 M40.18 0 C40.18 38.03, 40.18 76.06, 40.18 147.73 M40.18 0 C40.18 48.08, 40.18 96.16, 40.18 147.73 M40.18 147.73 C27.23 147.73, 14.29 147.73, 0 147.73 M40.18 147.73 C26.94 147.73, 13.7 147.73, 0 147.73 M0 147.73 C0 96.6, 0 45.46, 0 0 M0 147.73 C0 111.95, 0 76.17, 0 0" stroke="#1e1e1e" stroke-width="1" fill="none"></path></g><g transform="translate(144.56776422652865 110.29090183057406) rotate(0 8.44921875 9.200000000000045)"><text x="8.44921875" y="14.720312499999999" font-family="Helvetica, Segoe UI Emoji" font-size="16px" fill="#1e1e1e" text-anchor="middle" style="white-space: pre;" direction="ltr" dominant-baseline="alphabetic">s2</text></g><g stroke-linecap="round" transform="translate(173.108634970014 45.62453515956395) rotate(0 20.091652006514664 73.86636767100981)"><path d="M0 0 L40.18 0 L40.18 147.73 L0 147.73" stroke="none" stroke-width="0" fill="#ffec99"></path><path d="M0 0 C15.89 0, 31.78 0, 40.18 0 M0 0 C10.45 0, 20.91 0, 40.18 0 M40.18 0 C40.18 34.41, 40.18 68.82, 40.18 147.73 M40.18 0 C40.18 39.58, 40.18 79.16, 40.18 147.73 M40.18 147.73 C30.57 147.73, 20.96 147.73, 0 147.73 M40.18 147.73 C31.29 147.73, 22.4 147.73, 0 147.73 M0 147.73 C0 96.69, 0 45.66, 0 0 M0 147.73 C0 95.82, 0 43.91, 0 0" stroke="#1e1e1e" stroke-width="1" fill="none"></path></g><g transform="translate(184.7510682265288 110.29090283057349) rotate(0 8.44921875 9.200000000000045)"><text x="8.44921875" y="14.720312499999999" font-family="Helvetica, Segoe UI Emoji" font-size="16px" fill="#1e1e1e" text-anchor="middle" style="white-space: pre;" direction="ltr" dominant-baseline="alphabetic">s3</text></g><g transform="translate(-9.12270021865561 118.17175328140775) rotate(270 28.488693237304688 9.365993018649078)"><text x="0" y="14.98590696818842" font-family="Helvetica, Segoe UI Emoji" font-size="16.288683510694135px" fill="#1e1e1e" text-anchor="start" style="white-space: pre;" direction="ltr" dominant-baseline="alphabetic">seq_len</text></g><g stroke-linecap="round" transform="translate(52.74202658577599 45.62453397475383) rotate(0 80.27495600000003 73.86636850000014)"><path d="M0 0 C51.55 0, 103.1 0, 160.55 0 M0 0 C46.04 0, 92.09 0, 160.55 0 M160.55 0 C160.55 31.83, 160.55 63.66, 160.55 147.73 M160.55 0 C160.55 52.25, 160.55 104.51, 160.55 147.73 M160.55 147.73 C103.39 147.73, 46.22 147.73, 0 147.73 M160.55 147.73 C104.63 147.73, 48.71 147.73, 0 147.73 M0 147.73 C0 112, 0 76.27, 0 0 M0 147.73 C0 92.66, 0 37.58, 0 0" stroke="#e03131" stroke-width="2" fill="none"></path></g><g stroke-linecap="round" transform="translate(336.4007585149059 45.624533954741764) rotate(0 80.27495600000009 73.86636850000014)"><path d="M0 0 C52.31 0, 104.63 0, 160.55 0 M0 0 C57.58 0, 115.16 0, 160.55 0 M160.55 0 C160.55 38.82, 160.55 77.64, 160.55 147.73 M160.55 0 C160.55 33.32, 160.55 66.65, 160.55 147.73 M160.55 147.73 C112.86 147.73, 65.17 147.73, 0 147.73 M160.55 147.73 C117.22 147.73, 73.89 147.73, 0 147.73 M0 147.73 C0 110.92, 0 74.11, 0 0 M0 147.73 C0 108.23, 0 68.73, 0 0" stroke="#1e1e1e" stroke-width="1" fill="none"></path></g><g transform="translate(398.45305826490585 110.29090245474208) rotate(0 18.22265625 9.200000000000045)"><text x="18.22265625" y="14.720312499999999" font-family="Helvetica, Segoe UI Emoji" font-size="16px" fill="#1e1e1e" text-anchor="middle" style="white-space: pre;" direction="ltr" dominant-baseline="alphabetic">W_O</text></g><g transform="translate(253.2919386776755 110.29090323703485) rotate(0 4 9.200000000000045)"><text x="0" y="14.720312499999999" font-family="Helvetica, Segoe UI Emoji" font-size="16px" fill="#1e1e1e" text-anchor="start" style="white-space: pre;" direction="ltr" dominant-baseline="alphabetic">x</text></g><g transform="translate(536.6506853884539 110.29090299390282) rotate(0 4.671875 9.200000000000045)"><text x="0" y="14.720312499999999" font-family="Helvetica, Segoe UI Emoji" font-size="16px" fill="#1e1e1e" text-anchor="start" style="white-space: pre;" direction="ltr" dominant-baseline="alphabetic">=</text></g><g transform="translate(241.02747587396993 110.12490970805493) rotate(270 63.75209045410156 9.365993018649078)"><text x="0" y="14.98590696818842" font-family="Helvetica, Segoe UI Emoji" font-size="16.288683510694135px" fill="#1e1e1e" text-anchor="start" style="white-space: pre;" direction="ltr" dominant-baseline="alphabetic">hidden dimension</text></g><g transform="translate(69.35654416999785 10.000000542563612) rotate(0 63.75209045410156 9.365993018649078)"><text x="0" y="14.98590696818842" font-family="Helvetica, Segoe UI Emoji" font-size="16.288683510694135px" fill="#1e1e1e" text-anchor="start" style="white-space: pre;" direction="ltr" dominant-baseline="alphabetic">hidden dimension</text></g><g transform="translate(352.923623873289 10.00000086673981) rotate(0 63.75209045410156 9.365993018649078)"><text x="0" y="14.98590696818842" font-family="Helvetica, Segoe UI Emoji" font-size="16.288683510694135px" fill="#1e1e1e" text-anchor="start" style="white-space: pre;" direction="ltr" dominant-baseline="alphabetic">hidden dimension</text></g><g stroke-linecap="round" transform="translate(611.7692415746071 45.62453319855558) rotate(0 80.27495600000009 73.86636850000014)"><path d="M0 0 C61.71 0, 123.41 0, 160.55 0 M0 0 C35.33 0, 70.65 0, 160.55 0 M160.55 0 C160.55 42.69, 160.55 85.38, 160.55 147.73 M160.55 0 C160.55 45.88, 160.55 91.75, 160.55 147.73 M160.55 147.73 C115.98 147.73, 71.41 147.73, 0 147.73 M160.55 147.73 C114.99 147.73, 69.42 147.73, 0 147.73 M0 147.73 C0 112.54, 0 77.34, 0 0 M0 147.73 C0 100.45, 0 53.16, 0 0" stroke="#1e1e1e" stroke-width="1" fill="none"></path></g><g transform="translate(685.8215413246071 110.2909016985559) rotate(0 6.22265625 9.200000000000045)"><text x="6.22265625" y="14.720312499999999" font-family="Helvetica, Segoe UI Emoji" font-size="16px" fill="#1e1e1e" text-anchor="middle" style="white-space: pre;" direction="ltr" dominant-baseline="alphabetic">O</text></g><g transform="translate(628.2921068224359 10) rotate(0 63.75209045410156 9.365993018649078)"><text x="0" y="14.98590696818842" font-family="Helvetica, Segoe UI Emoji" font-size="16.288683510694135px" fill="#1e1e1e" text-anchor="start" style="white-space: pre;" direction="ltr" dominant-baseline="alphabetic">hidden dimension</text></g><g transform="translate(552.9367905970141 110.16527133894533) rotate(270 28.488693237304688 9.365993018649078)"><text x="0" y="14.98590696818842" font-family="Helvetica, Segoe UI Emoji" font-size="16.288683510694135px" fill="#1e1e1e" text-anchor="start" style="white-space: pre;" direction="ltr" dominant-baseline="alphabetic">seq_len</text></g></svg>