<svg version="1.1" xmlns="http://www.w3.org/2000/svg" viewBox="0 0 715.7322814176711 201.32689695675987" width="715.7322814176711" height="201.32689695675987">
  <!-- svg-source:excalidraw -->
  
  <defs>
    <style class="style-fonts">
      @font-face {
        font-family: "Virgil";
        src: url("https://excalidraw.com/Virgil.woff2");
      }
      @font-face {
        font-family: "Cascadia";
        src: url("https://excalidraw.com/Cascadia.woff2");
      }
      @font-face {
        font-family: "Assistant";
        src: url("https://excalidraw.com/Assistant-Regular.woff2");
      }
    </style>
    
  </defs>
  <rect x="0" y="0" width="715.7322814176711" height="201.32689695675987" fill="#ffffff"></rect><g stroke-linecap="round" transform="translate(49.79893649910457 43.59416161474027) rotate(0 83.0257972622149 73.8663676710098)"><path d="M0 0 C46.84 0, 93.67 0, 166.05 0 M0 0 C42.98 0, 85.95 0, 166.05 0 M166.05 0 C166.05 50.1, 166.05 100.19, 166.05 147.73 M166.05 0 C166.05 39.79, 166.05 79.58, 166.05 147.73 M166.05 147.73 C128.06 147.73, 90.08 147.73, 0 147.73 M166.05 147.73 C124.19 147.73, 82.34 147.73, 0 147.73 M0 147.73 C0 108.15, 0 68.57, 0 0 M0 147.73 C0 109.75, 0 71.78, 0 0" stroke="#1e1e1e" stroke-width="1" fill="none"></path></g><g transform="translate(126.60207751131941 108.26052928575007) rotate(0 6.22265625 9.199999999999989)"><text x="6.22265625" y="14.720312499999999" font-family="Helvetica, Segoe UI Emoji" font-size="16px" fill="#1e1e1e" text-anchor="middle" style="white-space: pre;" direction="ltr" dominant-baseline="alphabetic">Q</text></g><g transform="translate(72.61822895542639 10.590930941368129) rotate(0 63.75209045410156 9.365993018649121)"><text x="0" y="14.98590696818842" font-family="Helvetica, Segoe UI Emoji" font-size="16.288683510694135px" fill="#1e1e1e" text-anchor="start" style="white-space: pre;" direction="ltr" dominant-baseline="alphabetic">hidden dimension</text></g><g transform="translate(-9.163063501301963 109.27639814983706) rotate(270 28.529056519951098 9.365993018649135)"><text x="0" y="14.98590696818842" font-family="Helvetica, Segoe UI Emoji" font-size="16.288683510694135px" fill="#1e1e1e" text-anchor="start" style="white-space: pre;" direction="ltr" dominant-baseline="alphabetic">seq_len</text></g><g stroke-linecap="round" transform="translate(293.8534152841212 43.594161614740244) rotate(0 83.0257972622149 73.86636767100978)"><path d="M0 0 C38.51 0, 77.03 0, 166.05 0 M0 0 C33.78 0, 67.56 0, 166.05 0 M166.05 0 C166.05 37.91, 166.05 75.82, 166.05 147.73 M166.05 0 C166.05 46.22, 166.05 92.45, 166.05 147.73 M166.05 147.73 C126.99 147.73, 87.93 147.73, 0 147.73 M166.05 147.73 C113.68 147.73, 61.31 147.73, 0 147.73 M0 147.73 C0 114.6, 0 81.47, 0 0 M0 147.73 C0 103.05, 0 58.37, 0 0" stroke="#1e1e1e" stroke-width="1" fill="none"></path></g><g transform="translate(371.54327504633613 108.26052928575007) rotate(0 5.3359375 9.199999999999989)"><text x="5.3359375" y="14.720312499999999" font-family="Helvetica, Segoe UI Emoji" font-size="16px" fill="#1e1e1e" text-anchor="middle" style="white-space: pre;" direction="ltr" dominant-baseline="alphabetic">K</text></g><g transform="translate(316.672707740443 10.590930941368129) rotate(0 63.75209045410162 9.365993018649121)"><text x="0" y="14.98590696818842" font-family="Helvetica, Segoe UI Emoji" font-size="16.288683510694135px" fill="#1e1e1e" text-anchor="start" style="white-space: pre;" direction="ltr" dominant-baseline="alphabetic">hidden dimension</text></g><g transform="translate(234.89141528371465 109.27639814983695) rotate(270 28.529056519951098 9.365993018649135)"><text x="0" y="14.98590696818842" font-family="Helvetica, Segoe UI Emoji" font-size="16.288683510694135px" fill="#1e1e1e" text-anchor="start" style="white-space: pre;" direction="ltr" dominant-baseline="alphabetic">seq_len</text></g><g stroke-linecap="round" transform="translate(539.6806868932414 43.00323067337217) rotate(0 83.02579726221484 73.86636767100981)"><path d="M0 0 C49.24 0, 98.49 0, 166.05 0 M0 0 C51.57 0, 103.15 0, 166.05 0 M166.05 0 C166.05 38.12, 166.05 76.23, 166.05 147.73 M166.05 0 C166.05 41.17, 166.05 82.34, 166.05 147.73 M166.05 147.73 C125.43 147.73, 84.8 147.73, 0 147.73 M166.05 147.73 C132.12 147.73, 98.2 147.73, 0 147.73 M0 147.73 C0 115.14, 0 82.54, 0 0 M0 147.73 C0 113.16, 0 78.58, 0 0" stroke="#1e1e1e" stroke-width="1" fill="none"></path></g><g transform="translate(617.3705466554562 107.66959834438194) rotate(0 5.3359375 9.199999999999989)"><text x="5.3359375" y="14.720312499999999" font-family="Helvetica, Segoe UI Emoji" font-size="16px" fill="#1e1e1e" text-anchor="middle" style="white-space: pre;" direction="ltr" dominant-baseline="alphabetic">V</text></g><g transform="translate(563.0909102909314 10) rotate(0 63.75209045410156 9.365993018649121)"><text x="0" y="14.98590696818842" font-family="Helvetica, Segoe UI Emoji" font-size="16.288683510694135px" fill="#1e1e1e" text-anchor="start" style="white-space: pre;" direction="ltr" dominant-baseline="alphabetic">hidden dimension</text></g><g transform="translate(481.3096178342031 108.68546720846894) rotate(270 28.529056519951155 9.365993018649135)"><text x="0" y="14.98590696818842" font-family="Helvetica, Segoe UI Emoji" font-size="16.288683510694135px" fill="#1e1e1e" text-anchor="start" style="white-space: pre;" direction="ltr" dominant-baseline="alphabetic">seq_len</text></g></svg>