<svg version="1.1" xmlns="http://www.w3.org/2000/svg" viewBox="0 0 900.9687497171135 589.2159010505871" width="900.9687497171135" height="589.2159010505871">
  <!-- svg-source:excalidraw -->
  
  <defs>
    <style class="style-fonts">
      @font-face {
        font-family: "Virgil";
        src: url("https://excalidraw.com/Virgil.woff2");
      }
      @font-face {
        font-family: "Cascadia";
        src: url("https://excalidraw.com/Cascadia.woff2");
      }
      @font-face {
        font-family: "Assistant";
        src: url("https://excalidraw.com/Assistant-Regular.woff2");
      }
    </style>
    
  </defs>
  <rect x="0" y="0" width="900.9687497171135" height="589.2159010505871" fill="#ffffff"></rect><g stroke-linecap="round" transform="translate(342.52658043072165 384.67200779699226) rotate(0 20.091652006514664 73.8663676710097)"><path d="M0 0 L40.18 0 L40.18 147.73 L0 147.73" stroke="none" stroke-width="0" fill="#ffc9c9"></path><path d="M0 0 C15.99 0, 31.97 0, 40.18 0 M0 0 C15.38 0, 30.77 0, 40.18 0 M40.18 0 C40.18 38.24, 40.18 76.48, 40.18 147.73 M40.18 0 C40.18 51.31, 40.18 102.62, 40.18 147.73 M40.18 147.73 C30.28 147.73, 20.37 147.73, 0 147.73 M40.18 147.73 C29.59 147.73, 19 147.73, 0 147.73 M0 147.73 C0 94.81, 0 41.88, 0 0 M0 147.73 C0 105.61, 0 63.49, 0 0" stroke="#1e1e1e" stroke-width="1" fill="none"></path></g><g transform="translate(354.16901368723643 449.3383754680025) rotate(0 8.44921875 9.200000000000045)"><text x="8.44921875" y="14.720312499999999" font-family="Helvetica, Segoe UI Emoji" font-size="16px" fill="#1e1e1e" text-anchor="middle" style="white-space: pre;" direction="ltr" dominant-baseline="alphabetic">k0</text></g><g stroke-linecap="round" transform="translate(390.9427604307216 384.6720087969926) rotate(0 20.091652006514664 73.8663676710097)"><path d="M0 0 L40.18 0 L40.18 147.73 L0 147.73" stroke="none" stroke-width="0" fill="#b2f2bb"></path><path d="M0 0 C11.4 0, 22.8 0, 40.18 0 M0 0 C9.22 0, 18.44 0, 40.18 0 M40.18 0 C40.18 44.13, 40.18 88.26, 40.18 147.73 M40.18 0 C40.18 41.06, 40.18 82.12, 40.18 147.73 M40.18 147.73 C31 147.73, 21.83 147.73, 0 147.73 M40.18 147.73 C25.17 147.73, 10.15 147.73, 0 147.73 M0 147.73 C0 104.54, 0 61.35, 0 0 M0 147.73 C0 111.55, 0 75.36, 0 0" stroke="#1e1e1e" stroke-width="1" fill="none"></path></g><g transform="translate(402.58519368723637 449.33837646800237) rotate(0 8.44921875 9.200000000000045)"><text x="8.44921875" y="14.720312499999999" font-family="Helvetica, Segoe UI Emoji" font-size="16px" fill="#1e1e1e" text-anchor="middle" style="white-space: pre;" direction="ltr" dominant-baseline="alphabetic">k1</text></g><g stroke-linecap="round" transform="translate(439.3589404307213 384.67200579699227) rotate(0 20.091652006514664 73.86636767100981)"><path d="M0 0 L40.18 0 L40.18 147.73 L0 147.73" stroke="none" stroke-width="0" fill="#a5d8ff"></path><path d="M0 0 C10.87 0, 21.74 0, 40.18 0 M0 0 C12.43 0, 24.86 0, 40.18 0 M40.18 0 C40.18 57.7, 40.18 115.39, 40.18 147.73 M40.18 0 C40.18 39.3, 40.18 78.6, 40.18 147.73 M40.18 147.73 C31.75 147.73, 23.32 147.73, 0 147.73 M40.18 147.73 C27.11 147.73, 14.04 147.73, 0 147.73 M0 147.73 C0 94.94, 0 42.15, 0 0 M0 147.73 C0 117.82, 0 87.91, 0 0" stroke="#1e1e1e" stroke-width="1" fill="none"></path></g><g transform="translate(451.0013736872356 449.33837346800226) rotate(0 8.44921875 9.200000000000045)"><text x="8.44921875" y="14.720312499999999" font-family="Helvetica, Segoe UI Emoji" font-size="16px" fill="#1e1e1e" text-anchor="middle" style="white-space: pre;" direction="ltr" dominant-baseline="alphabetic">k2</text></g><g stroke-linecap="round" transform="translate(490.470278430721 384.6720087969926) rotate(0 20.091652006514664 73.8663676710097)"><path d="M0 0 L40.18 0 L40.18 147.73 L0 147.73" stroke="none" stroke-width="0" fill="#ffec99"></path><path d="M0 0 C14.22 0, 28.45 0, 40.18 0 M0 0 C14.75 0, 29.5 0, 40.18 0 M40.18 0 C40.18 45.16, 40.18 90.32, 40.18 147.73 M40.18 0 C40.18 39.59, 40.18 79.18, 40.18 147.73 M40.18 147.73 C25.61 147.73, 11.04 147.73, 0 147.73 M40.18 147.73 C29.68 147.73, 19.18 147.73, 0 147.73 M0 147.73 C0 95.87, 0 44, 0 0 M0 147.73 C0 108.95, 0 70.16, 0 0" stroke="#1e1e1e" stroke-width="1" fill="none"></path></g><g transform="translate(502.1127116872358 449.33837646800237) rotate(0 8.44921875 9.200000000000045)"><text x="8.44921875" y="14.720312499999999" font-family="Helvetica, Segoe UI Emoji" font-size="16px" fill="#1e1e1e" text-anchor="middle" style="white-space: pre;" direction="ltr" dominant-baseline="alphabetic">k3</text></g><g stroke-linecap="round" transform="translate(628.6919838669758 384.6720057150443) rotate(0 20.091652006514664 73.8663676710097)"><path d="M0 0 L40.18 0 L40.18 147.73 L0 147.73" stroke="none" stroke-width="0" fill="#ffc9c9"></path><path d="M0 0 C13.68 0, 27.35 0, 40.18 0 M0 0 C14.53 0, 29.06 0, 40.18 0 M40.18 0 C40.18 55.6, 40.18 111.2, 40.18 147.73 M40.18 0 C40.18 44.96, 40.18 89.91, 40.18 147.73 M40.18 147.73 C25.31 147.73, 10.44 147.73, 0 147.73 M40.18 147.73 C30.57 147.73, 20.95 147.73, 0 147.73 M0 147.73 C0 98.63, 0 49.54, 0 0 M0 147.73 C0 104.28, 0 60.83, 0 0" stroke="#1e1e1e" stroke-width="1" fill="none"></path></g><g transform="translate(640.3344171234905 449.3383733860545) rotate(0 8.44921875 9.200000000000045)"><text x="8.44921875" y="14.720312499999999" font-family="Helvetica, Segoe UI Emoji" font-size="16px" fill="#1e1e1e" text-anchor="middle" style="white-space: pre;" direction="ltr" dominant-baseline="alphabetic">v0</text></g><g stroke-linecap="round" transform="translate(677.9152528669758 384.6720077150445) rotate(0 20.091652006514664 73.8663676710097)"><path d="M0 0 L40.18 0 L40.18 147.73 L0 147.73" stroke="none" stroke-width="0" fill="#b2f2bb"></path><path d="M0 0 C13.95 0, 27.9 0, 40.18 0 M0 0 C14.69 0, 29.38 0, 40.18 0 M40.18 0 C40.18 58.47, 40.18 116.94, 40.18 147.73 M40.18 0 C40.18 53.11, 40.18 106.22, 40.18 147.73 M40.18 147.73 C27.08 147.73, 13.98 147.73, 0 147.73 M40.18 147.73 C26.91 147.73, 13.64 147.73, 0 147.73 M0 147.73 C0 100.32, 0 52.91, 0 0 M0 147.73 C0 113.73, 0 79.73, 0 0" stroke="#1e1e1e" stroke-width="1" fill="none"></path></g><g transform="translate(689.5576861234906 449.3383753860543) rotate(0 8.44921875 9.200000000000045)"><text x="8.44921875" y="14.720312499999999" font-family="Helvetica, Segoe UI Emoji" font-size="16px" fill="#1e1e1e" text-anchor="middle" style="white-space: pre;" direction="ltr" dominant-baseline="alphabetic">v1</text></g><g stroke-linecap="round" transform="translate(727.1385208669756 384.6720057150443) rotate(0 20.091652006514664 73.8663676710097)"><path d="M0 0 L40.18 0 L40.18 147.73 L0 147.73" stroke="none" stroke-width="0" fill="#a5d8ff"></path><path d="M0 0 C12.17 0, 24.34 0, 40.18 0 M0 0 C10.68 0, 21.37 0, 40.18 0 M40.18 0 C40.18 46.99, 40.18 93.97, 40.18 147.73 M40.18 0 C40.18 41.69, 40.18 83.39, 40.18 147.73 M40.18 147.73 C30.72 147.73, 21.26 147.73, 0 147.73 M40.18 147.73 C27.34 147.73, 14.5 147.73, 0 147.73 M0 147.73 C0 89.01, 0 30.29, 0 0 M0 147.73 C0 93.41, 0 39.08, 0 0" stroke="#1e1e1e" stroke-width="1" fill="none"></path></g><g transform="translate(738.7809541234903 449.3383733860545) rotate(0 8.44921875 9.200000000000045)"><text x="8.44921875" y="14.720312499999999" font-family="Helvetica, Segoe UI Emoji" font-size="16px" fill="#1e1e1e" text-anchor="middle" style="white-space: pre;" direction="ltr" dominant-baseline="alphabetic">v2</text></g><g stroke-linecap="round" transform="translate(777.6868958669759 384.6720077150445) rotate(0 20.091652006514664 73.8663676710097)"><path d="M0 0 L40.18 0 L40.18 147.73 L0 147.73" stroke="none" stroke-width="0" fill="#ffec99"></path><path d="M0 0 C9.9 0, 19.81 0, 40.18 0 M0 0 C10.59 0, 21.19 0, 40.18 0 M40.18 0 C40.18 52.93, 40.18 105.85, 40.18 147.73 M40.18 0 C40.18 42.12, 40.18 84.25, 40.18 147.73 M40.18 147.73 C27.56 147.73, 14.94 147.73, 0 147.73 M40.18 147.73 C31.88 147.73, 23.57 147.73, 0 147.73 M0 147.73 C0 117.64, 0 87.56, 0 0 M0 147.73 C0 108.15, 0 68.58, 0 0" stroke="#1e1e1e" stroke-width="1" fill="none"></path></g><g transform="translate(789.3293291234907 449.33837538605474) rotate(0 8.44921875 9.200000000000045)"><text x="8.44921875" y="14.720312499999999" font-family="Helvetica, Segoe UI Emoji" font-size="16px" fill="#1e1e1e" text-anchor="middle" style="white-space: pre;" direction="ltr" dominant-baseline="alphabetic">v3</text></g><g stroke-linecap="round" transform="translate(52.867084760393254 384.6720063017832) rotate(0 20.091652006514664 73.86636767100981)"><path d="M0 0 L40.18 0 L40.18 147.73 L0 147.73" stroke="none" stroke-width="0" fill="#ffc9c9"></path><path d="M0 0 C13.54 0, 27.07 0, 40.18 0 M0 0 C13.13 0, 26.25 0, 40.18 0 M40.18 0 C40.18 33.35, 40.18 66.69, 40.18 147.73 M40.18 0 C40.18 46.25, 40.18 92.49, 40.18 147.73 M40.18 147.73 C25.96 147.73, 11.74 147.73, 0 147.73 M40.18 147.73 C25.43 147.73, 10.68 147.73, 0 147.73 M0 147.73 C0 102.57, 0 57.41, 0 0 M0 147.73 C0 108.14, 0 68.55, 0 0" stroke="#1e1e1e" stroke-width="1" fill="none"></path></g><g transform="translate(64.06029926690803 449.3383739727934) rotate(0 8.8984375 9.200000000000045)"><text x="8.8984375" y="14.720312499999999" font-family="Helvetica, Segoe UI Emoji" font-size="16px" fill="#1e1e1e" text-anchor="middle" style="white-space: pre;" direction="ltr" dominant-baseline="alphabetic">q0</text></g><g stroke-linecap="round" transform="translate(100.90011576039319 384.6720053017833) rotate(0 20.091652006514664 73.86636767100981)"><path d="M0 0 L40.18 0 L40.18 147.73 L0 147.73" stroke="none" stroke-width="0" fill="#b2f2bb"></path><path d="M0 0 C10.25 0, 20.51 0, 40.18 0 M0 0 C12.3 0, 24.61 0, 40.18 0 M40.18 0 C40.18 37.24, 40.18 74.47, 40.18 147.73 M40.18 0 C40.18 58.63, 40.18 117.25, 40.18 147.73 M40.18 147.73 C26.51 147.73, 12.83 147.73, 0 147.73 M40.18 147.73 C25.65 147.73, 11.13 147.73, 0 147.73 M0 147.73 C0 92.13, 0 36.53, 0 0 M0 147.73 C0 102.78, 0 57.82, 0 0" stroke="#1e1e1e" stroke-width="1" fill="none"></path></g><g transform="translate(112.09333026690774 449.3383729727931) rotate(0 8.8984375 9.200000000000045)"><text x="8.8984375" y="14.720312499999999" font-family="Helvetica, Segoe UI Emoji" font-size="16px" fill="#1e1e1e" text-anchor="middle" style="white-space: pre;" direction="ltr" dominant-baseline="alphabetic">q1</text></g><g stroke-linecap="round" transform="translate(148.93314776039324 384.6720073017831) rotate(0 20.091652006514664 73.86636767100981)"><path d="M0 0 L40.18 0 L40.18 147.73 L0 147.73" stroke="none" stroke-width="0" fill="#a5d8ff"></path><path d="M0 0 C8.11 0, 16.22 0, 40.18 0 M0 0 C11.28 0, 22.56 0, 40.18 0 M40.18 0 C40.18 37.6, 40.18 75.19, 40.18 147.73 M40.18 0 C40.18 52.15, 40.18 104.31, 40.18 147.73 M40.18 147.73 C26.23 147.73, 12.28 147.73, 0 147.73 M40.18 147.73 C25.5 147.73, 10.81 147.73, 0 147.73 M0 147.73 C0 89.26, 0 30.79, 0 0 M0 147.73 C0 94.62, 0 41.51, 0 0" stroke="#1e1e1e" stroke-width="1" fill="none"></path></g><g transform="translate(160.12636226690802 449.3383749727933) rotate(0 8.8984375 9.200000000000045)"><text x="8.8984375" y="14.720312499999999" font-family="Helvetica, Segoe UI Emoji" font-size="16px" fill="#1e1e1e" text-anchor="middle" style="white-space: pre;" direction="ltr" dominant-baseline="alphabetic">q2</text></g><g stroke-linecap="round" transform="translate(197.67294376039308 384.6720053017833) rotate(0 20.091652006514664 73.86636767100981)"><path d="M0 0 L40.18 0 L40.18 147.73 L0 147.73" stroke="none" stroke-width="0" fill="#ffec99"></path><path d="M0 0 C13.2 0, 26.4 0, 40.18 0 M0 0 C13.61 0, 27.23 0, 40.18 0 M40.18 0 C40.18 53.27, 40.18 106.54, 40.18 147.73 M40.18 0 C40.18 41.63, 40.18 83.25, 40.18 147.73 M40.18 147.73 C28.02 147.73, 15.85 147.73, 0 147.73 M40.18 147.73 C29.5 147.73, 18.81 147.73, 0 147.73 M0 147.73 C0 100.75, 0 53.76, 0 0 M0 147.73 C0 106.04, 0 64.34, 0 0" stroke="#1e1e1e" stroke-width="1" fill="none"></path></g><g transform="translate(208.86615826690786 449.3383729727931) rotate(0 8.8984375 9.200000000000045)"><text x="8.8984375" y="14.720312499999999" font-family="Helvetica, Segoe UI Emoji" font-size="16px" fill="#1e1e1e" text-anchor="middle" style="white-space: pre;" direction="ltr" dominant-baseline="alphabetic">q3</text></g><g transform="translate(-9.12270021865561 449.21274624639375) rotate(270 28.488693237304688 9.365993018649078)"><text x="0" y="14.98590696818842" font-family="Helvetica, Segoe UI Emoji" font-size="16.288683510694135px" fill="#1e1e1e" text-anchor="start" style="white-space: pre;" direction="ltr" dominant-baseline="alphabetic">seq_len</text></g><g transform="translate(43.28299821498172 356.1986194540201) rotate(0 30.19561767578125 7.911284255515625)"><text x="0" y="12.658323534513098" font-family="Helvetica, Segoe UI Emoji" font-size="13.758755226983773px" fill="#1e1e1e" text-anchor="start" style="white-space: pre;" direction="ltr" dominant-baseline="alphabetic">head_dim</text></g><g stroke-linecap="round" transform="translate(66.44019822225721 48.82151954650374) rotate(0 20.091652006514664 73.8663676710097)"><path d="M0 0 L40.18 0 L40.18 147.73 L0 147.73" stroke="none" stroke-width="0" fill="#ffc9c9"></path><path d="M0 0 C11.42 0, 22.83 0, 40.18 0 M0 0 C9.94 0, 19.88 0, 40.18 0 M40.18 0 C40.18 56.57, 40.18 113.15, 40.18 147.73 M40.18 0 C40.18 46.76, 40.18 93.53, 40.18 147.73 M40.18 147.73 C31.41 147.73, 22.63 147.73, 0 147.73 M40.18 147.73 C25.4 147.73, 10.62 147.73, 0 147.73 M0 147.73 C0 90.51, 0 33.29, 0 0 M0 147.73 C0 94.92, 0 42.12, 0 0" stroke="#1e1e1e" stroke-width="1" fill="none"></path></g><g transform="translate(77.63341272877199 113.4878872175135) rotate(0 8.8984375 9.200000000000045)"><text x="8.8984375" y="14.720312499999999" font-family="Helvetica, Segoe UI Emoji" font-size="16px" fill="#1e1e1e" text-anchor="middle" style="white-space: pre;" direction="ltr" dominant-baseline="alphabetic">q0</text></g><g stroke-linecap="round" transform="translate(106.62350222225712 48.82151954650374) rotate(0 20.091652006514664 73.8663676710097)"><path d="M0 0 L40.18 0 L40.18 147.73 L0 147.73" stroke="none" stroke-width="0" fill="#b2f2bb"></path><path d="M0 0 C13.15 0, 26.29 0, 40.18 0 M0 0 C9.07 0, 18.14 0, 40.18 0 M40.18 0 C40.18 39.34, 40.18 78.68, 40.18 147.73 M40.18 0 C40.18 32.44, 40.18 64.87, 40.18 147.73 M40.18 147.73 C27.54 147.73, 14.9 147.73, 0 147.73 M40.18 147.73 C26.36 147.73, 12.54 147.73, 0 147.73 M0 147.73 C0 94.16, 0 40.6, 0 0 M0 147.73 C0 115.98, 0 84.22, 0 0" stroke="#1e1e1e" stroke-width="1" fill="none"></path></g><g transform="translate(117.81671672877167 113.4878872175135) rotate(0 8.8984375 9.200000000000045)"><text x="8.8984375" y="14.720312499999999" font-family="Helvetica, Segoe UI Emoji" font-size="16px" fill="#1e1e1e" text-anchor="middle" style="white-space: pre;" direction="ltr" dominant-baseline="alphabetic">q1</text></g><g stroke-linecap="round" transform="translate(146.62350222225712 48.8215185465034) rotate(0 20.091652006514664 73.8663676710097)"><path d="M0 0 L40.18 0 L40.18 147.73 L0 147.73" stroke="none" stroke-width="0" fill="#a5d8ff"></path><path d="M0 0 C9.02 0, 18.04 0, 40.18 0 M0 0 C13.93 0, 27.87 0, 40.18 0 M40.18 0 C40.18 39.98, 40.18 79.97, 40.18 147.73 M40.18 0 C40.18 57.43, 40.18 114.86, 40.18 147.73 M40.18 147.73 C31.31 147.73, 22.43 147.73, 0 147.73 M40.18 147.73 C30.88 147.73, 21.58 147.73, 0 147.73 M0 147.73 C0 107.58, 0 67.44, 0 0 M0 147.73 C0 97.83, 0 47.92, 0 0" stroke="#1e1e1e" stroke-width="1" fill="none"></path></g><g transform="translate(157.81671672877167 113.48788621751316) rotate(0 8.8984375 9.200000000000045)"><text x="8.8984375" y="14.720312499999999" font-family="Helvetica, Segoe UI Emoji" font-size="16px" fill="#1e1e1e" text-anchor="middle" style="white-space: pre;" direction="ltr" dominant-baseline="alphabetic">q2</text></g><g stroke-linecap="round" transform="translate(186.80680622225725 48.82151954650374) rotate(0 20.091652006514664 73.8663676710097)"><path d="M0 0 L40.18 0 L40.18 147.73 L0 147.73" stroke="none" stroke-width="0" fill="#ffec99"></path><path d="M0 0 C15.74 0, 31.48 0, 40.18 0 M0 0 C14.99 0, 29.98 0, 40.18 0 M40.18 0 C40.18 44.1, 40.18 88.19, 40.18 147.73 M40.18 0 C40.18 46.18, 40.18 92.36, 40.18 147.73 M40.18 147.73 C28.07 147.73, 15.95 147.73, 0 147.73 M40.18 147.73 C29.36 147.73, 18.53 147.73, 0 147.73 M0 147.73 C0 101.08, 0 54.43, 0 0 M0 147.73 C0 97.34, 0 46.95, 0 0" stroke="#1e1e1e" stroke-width="1" fill="none"></path></g><g transform="translate(198.0000207287718 113.4878872175135) rotate(0 8.8984375 9.200000000000045)"><text x="8.8984375" y="14.720312499999999" font-family="Helvetica, Segoe UI Emoji" font-size="16px" fill="#1e1e1e" text-anchor="middle" style="white-space: pre;" direction="ltr" dominant-baseline="alphabetic">q3</text></g><g transform="translate(-0.45891396641252413 113.36225666834764) rotate(270 28.488693237304688 9.365993018649078)"><text x="0" y="14.98590696818842" font-family="Helvetica, Segoe UI Emoji" font-size="16.288683510694135px" fill="#1e1e1e" text-anchor="start" style="white-space: pre;" direction="ltr" dominant-baseline="alphabetic">seq_len</text></g><g transform="translate(53.08308430600766 10) rotate(0 30.19561767578125 7.911284255515682)"><text x="0" y="12.658323534513098" font-family="Helvetica, Segoe UI Emoji" font-size="13.758755226983773px" fill="#1e1e1e" text-anchor="start" style="white-space: pre;" direction="ltr" dominant-baseline="alphabetic">head_dim</text></g><g transform="translate(62.26373608157985 219.5532052179202) rotate(0 79.16015625 9.200000000000045)"><text x="0" y="14.720312499999999" font-family="Helvetica, Segoe UI Emoji" font-size="16px" fill="#1e1e1e" text-anchor="start" style="white-space: pre;" direction="ltr" dominant-baseline="alphabetic">(seq_len, hidden_dim)</text></g><g transform="translate(26.23639229805201 560.8159010505871) rotate(0 115.1875 9.200000000000045)"><text x="0" y="14.720312499999999" font-family="Helvetica, Segoe UI Emoji" font-size="16px" fill="#1e1e1e" text-anchor="start" style="white-space: pre;" direction="ltr" dominant-baseline="alphabetic">(num_head, seq_len, head_dim)</text></g><g stroke-linecap="round" transform="translate(352.17656189258526 48.23226004171249) rotate(0 20.091652006514607 73.8663676710097)"><path d="M0 0 L40.18 0 L40.18 147.73 L0 147.73" stroke="none" stroke-width="0" fill="#ffc9c9"></path><path d="M0 0 C12.41 0, 24.81 0, 40.18 0 M0 0 C15.2 0, 30.39 0, 40.18 0 M40.18 0 C40.18 54.13, 40.18 108.26, 40.18 147.73 M40.18 0 C40.18 50.31, 40.18 100.62, 40.18 147.73 M40.18 147.73 C28.74 147.73, 17.3 147.73, 0 147.73 M40.18 147.73 C27.8 147.73, 15.41 147.73, 0 147.73 M0 147.73 C0 101.99, 0 56.24, 0 0 M0 147.73 C0 118.07, 0 88.4, 0 0" stroke="#1e1e1e" stroke-width="1" fill="none"></path></g><g transform="translate(363.8189951490998 112.89862771272226) rotate(0 8.449218749999943 9.200000000000045)"><text x="8.44921875" y="14.720312499999999" font-family="Helvetica, Segoe UI Emoji" font-size="16px" fill="#1e1e1e" text-anchor="middle" style="white-space: pre;" direction="ltr" dominant-baseline="alphabetic">k0</text></g><g stroke-linecap="round" transform="translate(392.35986589258505 48.23226004171249) rotate(0 20.091652006514664 73.8663676710097)"><path d="M0 0 L40.18 0 L40.18 147.73 L0 147.73" stroke="none" stroke-width="0" fill="#b2f2bb"></path><path d="M0 0 C8.82 0, 17.64 0, 40.18 0 M0 0 C9.92 0, 19.84 0, 40.18 0 M40.18 0 C40.18 45.06, 40.18 90.13, 40.18 147.73 M40.18 0 C40.18 56.58, 40.18 113.15, 40.18 147.73 M40.18 147.73 C25.6 147.73, 11.02 147.73, 0 147.73 M40.18 147.73 C27.77 147.73, 15.35 147.73, 0 147.73 M0 147.73 C0 91.23, 0 34.72, 0 0 M0 147.73 C0 95.45, 0 43.17, 0 0" stroke="#1e1e1e" stroke-width="1" fill="none"></path></g><g transform="translate(404.0022991490998 112.89862771272226) rotate(0 8.44921875 9.200000000000045)"><text x="8.44921875" y="14.720312499999999" font-family="Helvetica, Segoe UI Emoji" font-size="16px" fill="#1e1e1e" text-anchor="middle" style="white-space: pre;" direction="ltr" dominant-baseline="alphabetic">k1</text></g><g stroke-linecap="round" transform="translate(432.3598658925855 48.23226004171249) rotate(0 20.091652006514664 73.8663676710097)"><path d="M0 0 L40.18 0 L40.18 147.73 L0 147.73" stroke="none" stroke-width="0" fill="#a5d8ff"></path><path d="M0 0 C9.33 0, 18.65 0, 40.18 0 M0 0 C15.05 0, 30.1 0, 40.18 0 M40.18 0 C40.18 38.28, 40.18 76.55, 40.18 147.73 M40.18 0 C40.18 31.2, 40.18 62.4, 40.18 147.73 M40.18 147.73 C28.44 147.73, 16.69 147.73, 0 147.73 M40.18 147.73 C30.39 147.73, 20.6 147.73, 0 147.73 M0 147.73 C0 106.75, 0 65.77, 0 0 M0 147.73 C0 88.91, 0 30.08, 0 0" stroke="#1e1e1e" stroke-width="1" fill="none"></path></g><g transform="translate(444.0022991490998 112.89862771272226) rotate(0 8.44921875 9.200000000000045)"><text x="8.44921875" y="14.720312499999999" font-family="Helvetica, Segoe UI Emoji" font-size="16px" fill="#1e1e1e" text-anchor="middle" style="white-space: pre;" direction="ltr" dominant-baseline="alphabetic">k2</text></g><g stroke-linecap="round" transform="translate(472.54316989258564 48.23226004171249) rotate(0 20.091652006514664 73.8663676710097)"><path d="M0 0 L40.18 0 L40.18 147.73 L0 147.73" stroke="none" stroke-width="0" fill="#ffec99"></path><path d="M0 0 C8.78 0, 17.55 0, 40.18 0 M0 0 C14.78 0, 29.56 0, 40.18 0 M40.18 0 C40.18 57.22, 40.18 114.45, 40.18 147.73 M40.18 0 C40.18 52.81, 40.18 105.62, 40.18 147.73 M40.18 147.73 C28.38 147.73, 16.58 147.73, 0 147.73 M40.18 147.73 C24.29 147.73, 8.4 147.73, 0 147.73 M0 147.73 C0 110.56, 0 73.39, 0 0 M0 147.73 C0 89.74, 0 31.75, 0 0" stroke="#1e1e1e" stroke-width="1" fill="none"></path></g><g transform="translate(484.18560314909996 112.89862771272226) rotate(0 8.44921875 9.200000000000045)"><text x="8.44921875" y="14.720312499999999" font-family="Helvetica, Segoe UI Emoji" font-size="16px" fill="#1e1e1e" text-anchor="middle" style="white-space: pre;" direction="ltr" dominant-baseline="alphabetic">k3</text></g><g transform="translate(357.4299254788202 219.5532054547267) rotate(0 79.16015625 9.200000000000045)"><text x="0" y="14.720312499999999" font-family="Helvetica, Segoe UI Emoji" font-size="16px" fill="#1e1e1e" text-anchor="start" style="white-space: pre;" direction="ltr" dominant-baseline="alphabetic">(seq_len, hidden_dim)</text></g><g stroke-linecap="round" transform="translate(637.9129243288398 48.82151895976472) rotate(0 20.091652006514664 73.86636767100975)"><path d="M0 0 L40.18 0 L40.18 147.73 L0 147.73" stroke="none" stroke-width="0" fill="#ffc9c9"></path><path d="M0 0 C12.64 0, 25.29 0, 40.18 0 M0 0 C13.82 0, 27.65 0, 40.18 0 M40.18 0 C40.18 53.57, 40.18 107.14, 40.18 147.73 M40.18 0 C40.18 31.76, 40.18 63.51, 40.18 147.73 M40.18 147.73 C26.06 147.73, 11.94 147.73, 0 147.73 M40.18 147.73 C29.81 147.73, 19.43 147.73, 0 147.73 M0 147.73 C0 92.13, 0 36.53, 0 0 M0 147.73 C0 95.04, 0 42.34, 0 0" stroke="#1e1e1e" stroke-width="1" fill="none"></path></g><g transform="translate(649.5553575853542 113.48788663077437) rotate(0 8.44921875 9.200000000000045)"><text x="8.44921875" y="14.720312499999999" font-family="Helvetica, Segoe UI Emoji" font-size="16px" fill="#1e1e1e" text-anchor="middle" style="white-space: pre;" direction="ltr" dominant-baseline="alphabetic">v0</text></g><g stroke-linecap="round" transform="translate(678.09622832884 48.82151895976472) rotate(0 20.091652006514664 73.86636767100975)"><path d="M0 0 L40.18 0 L40.18 147.73 L0 147.73" stroke="none" stroke-width="0" fill="#b2f2bb"></path><path d="M0 0 C8.88 0, 17.76 0, 40.18 0 M0 0 C9.3 0, 18.6 0, 40.18 0 M40.18 0 C40.18 40.15, 40.18 80.3, 40.18 147.73 M40.18 0 C40.18 49.91, 40.18 99.81, 40.18 147.73 M40.18 147.73 C27.56 147.73, 14.93 147.73, 0 147.73 M40.18 147.73 C30.66 147.73, 21.14 147.73, 0 147.73 M0 147.73 C0 112.72, 0 77.71, 0 0 M0 147.73 C0 92.87, 0 38.01, 0 0" stroke="#1e1e1e" stroke-width="1" fill="none"></path></g><g transform="translate(689.7386615853547 113.48788663077437) rotate(0 8.44921875 9.200000000000045)"><text x="8.44921875" y="14.720312499999999" font-family="Helvetica, Segoe UI Emoji" font-size="16px" fill="#1e1e1e" text-anchor="middle" style="white-space: pre;" direction="ltr" dominant-baseline="alphabetic">v1</text></g><g stroke-linecap="round" transform="translate(718.09622832884 48.82151895976472) rotate(0 20.091652006514664 73.86636767100975)"><path d="M0 0 L40.18 0 L40.18 147.73 L0 147.73" stroke="none" stroke-width="0" fill="#a5d8ff"></path><path d="M0 0 C12.12 0, 24.23 0, 40.18 0 M0 0 C10.83 0, 21.66 0, 40.18 0 M40.18 0 C40.18 46.65, 40.18 93.3, 40.18 147.73 M40.18 0 C40.18 50.39, 40.18 100.78, 40.18 147.73 M40.18 147.73 C24.33 147.73, 8.47 147.73, 0 147.73 M40.18 147.73 C26.22 147.73, 12.26 147.73, 0 147.73 M0 147.73 C0 113.33, 0 78.92, 0 0 M0 147.73 C0 106.64, 0 65.56, 0 0" stroke="#1e1e1e" stroke-width="1" fill="none"></path></g><g transform="translate(729.7386615853547 113.48788663077437) rotate(0 8.44921875 9.200000000000045)"><text x="8.44921875" y="14.720312499999999" font-family="Helvetica, Segoe UI Emoji" font-size="16px" fill="#1e1e1e" text-anchor="middle" style="white-space: pre;" direction="ltr" dominant-baseline="alphabetic">v2</text></g><g stroke-linecap="round" transform="translate(758.2795323288401 48.82151895976472) rotate(0 20.091652006514664 73.86636767100975)"><path d="M0 0 L40.18 0 L40.18 147.73 L0 147.73" stroke="none" stroke-width="0" fill="#ffec99"></path><path d="M0 0 C11.44 0, 22.88 0, 40.18 0 M0 0 C12.39 0, 24.77 0, 40.18 0 M40.18 0 C40.18 45.75, 40.18 91.49, 40.18 147.73 M40.18 0 C40.18 29.67, 40.18 59.33, 40.18 147.73 M40.18 147.73 C29.36 147.73, 18.53 147.73, 0 147.73 M40.18 147.73 C27.46 147.73, 14.74 147.73, 0 147.73 M0 147.73 C0 106.73, 0 65.73, 0 0 M0 147.73 C0 91.66, 0 35.58, 0 0" stroke="#1e1e1e" stroke-width="1" fill="none"></path></g><g transform="translate(769.9219655853549 113.48788663077437) rotate(0 8.44921875 9.200000000000045)"><text x="8.44921875" y="14.720312499999999" font-family="Helvetica, Segoe UI Emoji" font-size="16px" fill="#1e1e1e" text-anchor="middle" style="white-space: pre;" direction="ltr" dominant-baseline="alphabetic">v3</text></g><g transform="translate(645.0718614724053 219.55320562254326) rotate(0 79.16015625 9.200000000000045)"><text x="0" y="14.720312499999999" font-family="Helvetica, Segoe UI Emoji" font-size="16px" fill="#1e1e1e" text-anchor="start" style="white-space: pre;" direction="ltr" dominant-baseline="alphabetic">(seq_len, hidden_dim)</text></g><g transform="translate(317.26401791733406 560.8159004142996) rotate(0 115.1875 9.200000000000045)"><text x="0" y="14.720312499999999" font-family="Helvetica, Segoe UI Emoji" font-size="16px" fill="#1e1e1e" text-anchor="start" style="white-space: pre;" direction="ltr" dominant-baseline="alphabetic">(num_head, seq_len, head_dim)</text></g><g transform="translate(609.0445177568997 560.8159007499329) rotate(0 115.1875 9.200000000000045)"><text x="0" y="14.720312499999999" font-family="Helvetica, Segoe UI Emoji" font-size="16px" fill="#1e1e1e" text-anchor="start" style="white-space: pre;" direction="ltr" dominant-baseline="alphabetic">(num_head, seq_len, head_dim)</text></g><g stroke-linecap="round"><g transform="translate(433.27411581838646 261.5414135301322) rotate(0 0 42.80765386807241)"><path d="M0 0 C0 25.85, 0 51.7, 0 85.62 M0 0 C0 28.42, 0 56.84, 0 85.62" stroke="#1e1e1e" stroke-width="1" fill="none"></path></g><g transform="translate(433.27411581838646 261.5414135301322) rotate(0 0 42.80765386807241)"><path d="M0 85.62 L-6.34 72.02 L6.34 72.02 L0 85.62" stroke="none" stroke-width="0" fill="#1e1e1e" fill-rule="evenodd"></path><path d="M0 85.62 C-1.91 81.51, -3.83 77.41, -6.34 72.02 M0 85.62 C-2.1 81.1, -4.21 76.59, -6.34 72.02 M-6.34 72.02 C-2.88 72.02, 0.57 72.02, 6.34 72.02 M-6.34 72.02 C-2.95 72.02, 0.45 72.02, 6.34 72.02 M6.34 72.02 C3.9 77.25, 1.46 82.49, 0 85.62 M6.34 72.02 C4.67 75.61, 2.99 79.2, 0 85.62 M0 85.62 C0 85.62, 0 85.62, 0 85.62 M0 85.62 C0 85.62, 0 85.62, 0 85.62" stroke="#1e1e1e" stroke-width="1" fill="none"></path></g></g><mask></mask><g transform="translate(487.1640622171135 300.30093745719466) rotate(0 201.90234375 9.200000000000045)"><text x="0" y="14.720312499999999" font-family="Helvetica, Segoe UI Emoji" font-size="16px" fill="#1e1e1e" text-anchor="start" style="white-space: pre;" direction="ltr" dominant-baseline="alphabetic">reshape(seq_len, num_heads, head_dim).transpose(0,1)</text></g></svg>