<svg version="1.1" xmlns="http://www.w3.org/2000/svg" viewBox="0 0 1093.7432340829323 378.3964702921403" width="1093.7432340829323" height="378.3964702921403">
  <!-- svg-source:excalidraw -->
  
  <defs>
    <style class="style-fonts">
      @font-face {
        font-family: "Virgil";
        src: url("https://excalidraw.com/Virgil.woff2");
      }
      @font-face {
        font-family: "Cascadia";
        src: url("https://excalidraw.com/Cascadia.woff2");
      }
      @font-face {
        font-family: "Assistant";
        src: url("https://excalidraw.com/Assistant-Regular.woff2");
      }
    </style>
    
  </defs>
  <rect x="0" y="0" width="1093.7432340829323" height="378.3964702921403" fill="#ffffff"></rect><g stroke-linecap="round" transform="translate(52.74202697001408 115.90711500000009) rotate(0 20.091652006514664 73.86636767100975)"><path d="M0 0 L40.18 0 L40.18 147.73 L0 147.73" stroke="none" stroke-width="0" fill="#ffc9c9"></path><path d="M0 0 C14.92 0, 29.83 0, 40.18 0 M0 0 C14.57 0, 29.13 0, 40.18 0 M40.18 0 C40.18 30.81, 40.18 61.63, 40.18 147.73 M40.18 0 C40.18 37.57, 40.18 75.14, 40.18 147.73 M40.18 147.73 C30.39 147.73, 20.59 147.73, 0 147.73 M40.18 147.73 C29.52 147.73, 18.85 147.73, 0 147.73 M0 147.73 C0 109.47, 0 71.2, 0 0 M0 147.73 C0 94.02, 0 40.31, 0 0" stroke="#1e1e1e" stroke-width="1" fill="none"></path></g><g transform="translate(63.935241476528745 180.57348267100986) rotate(0 8.8984375 9.199999999999989)"><text x="8.8984375" y="14.720312499999999" font-family="Helvetica, Segoe UI Emoji" font-size="16px" fill="#1e1e1e" text-anchor="middle" style="white-space: pre;" direction="ltr" dominant-baseline="alphabetic">q0</text></g><g stroke-linecap="round" transform="translate(92.92533097001399 115.90711500000009) rotate(0 20.091652006514664 73.86636767100975)"><path d="M0 0 L40.18 0 L40.18 147.73 L0 147.73" stroke="none" stroke-width="0" fill="#b2f2bb"></path><path d="M0 0 C11.2 0, 22.4 0, 40.18 0 M0 0 C13.3 0, 26.61 0, 40.18 0 M40.18 0 C40.18 51.69, 40.18 103.38, 40.18 147.73 M40.18 0 C40.18 51.45, 40.18 102.91, 40.18 147.73 M40.18 147.73 C30.56 147.73, 20.93 147.73, 0 147.73 M40.18 147.73 C31.51 147.73, 22.84 147.73, 0 147.73 M0 147.73 C0 97.91, 0 48.1, 0 0 M0 147.73 C0 101.36, 0 54.98, 0 0" stroke="#1e1e1e" stroke-width="1" fill="none"></path></g><g transform="translate(104.11854547652865 180.57348267100986) rotate(0 8.8984375 9.199999999999989)"><text x="8.8984375" y="14.720312499999999" font-family="Helvetica, Segoe UI Emoji" font-size="16px" fill="#1e1e1e" text-anchor="middle" style="white-space: pre;" direction="ltr" dominant-baseline="alphabetic">q1</text></g><g stroke-linecap="round" transform="translate(132.925330970014 115.90711399999998) rotate(0 20.091652006514664 73.86636767100975)"><path d="M0 0 L40.18 0 L40.18 147.73 L0 147.73" stroke="none" stroke-width="0" fill="#a5d8ff"></path><path d="M0 0 C13.26 0, 26.51 0, 40.18 0 M0 0 C14.83 0, 29.66 0, 40.18 0 M40.18 0 C40.18 31.69, 40.18 63.37, 40.18 147.73 M40.18 0 C40.18 41.79, 40.18 83.59, 40.18 147.73 M40.18 147.73 C30.56 147.73, 20.93 147.73, 0 147.73 M40.18 147.73 C31.77 147.73, 23.35 147.73, 0 147.73 M0 147.73 C0 110.77, 0 73.81, 0 0 M0 147.73 C0 115.13, 0 82.53, 0 0" stroke="#1e1e1e" stroke-width="1" fill="none"></path></g><g transform="translate(144.11854547652865 180.57348167100974) rotate(0 8.8984375 9.199999999999989)"><text x="8.8984375" y="14.720312499999999" font-family="Helvetica, Segoe UI Emoji" font-size="16px" fill="#1e1e1e" text-anchor="middle" style="white-space: pre;" direction="ltr" dominant-baseline="alphabetic">q2</text></g><g stroke-linecap="round" transform="translate(173.108634970014 115.90711500000009) rotate(0 20.091652006514664 73.86636767100975)"><path d="M0 0 L40.18 0 L40.18 147.73 L0 147.73" stroke="none" stroke-width="0" fill="#ffec99"></path><path d="M0 0 C10.07 0, 20.14 0, 40.18 0 M0 0 C14.93 0, 29.87 0, 40.18 0 M40.18 0 C40.18 33.87, 40.18 67.75, 40.18 147.73 M40.18 0 C40.18 45.38, 40.18 90.77, 40.18 147.73 M40.18 147.73 C30.29 147.73, 20.4 147.73, 0 147.73 M40.18 147.73 C29.05 147.73, 17.92 147.73, 0 147.73 M0 147.73 C0 103.16, 0 58.58, 0 0 M0 147.73 C0 101.93, 0 56.13, 0 0" stroke="#1e1e1e" stroke-width="1" fill="none"></path></g><g transform="translate(184.30184947652867 180.57348267100986) rotate(0 8.8984375 9.199999999999989)"><text x="8.8984375" y="14.720312499999999" font-family="Helvetica, Segoe UI Emoji" font-size="16px" fill="#1e1e1e" text-anchor="middle" style="white-space: pre;" direction="ltr" dominant-baseline="alphabetic">q3</text></g><g transform="translate(-9.12270021865561 188.45433312184412) rotate(270 28.488693237304688 9.365993018649135)"><text x="0" y="14.98590696818842" font-family="Helvetica, Segoe UI Emoji" font-size="16.288683510694135px" fill="#1e1e1e" text-anchor="start" style="white-space: pre;" direction="ltr" dominant-baseline="alphabetic">seq_len</text></g><g transform="translate(42.63806105376477 88.6106664534966) rotate(0 30.19561767578125 7.911284255515682)"><text x="0" y="12.658323534513098" font-family="Helvetica, Segoe UI Emoji" font-size="13.758755226983773px" fill="#1e1e1e" text-anchor="start" style="white-space: pre;" direction="ltr" dominant-baseline="alphabetic">head_dim</text></g><g stroke-linecap="round" transform="translate(52.74202697001408 115.90711500000009) rotate(0 20.09165200000001 6.777027499999974)"><path d="M0 0 L40.18 0 L40.18 13.55 L0 13.55" stroke="none" stroke-width="0" fill="#ffc9c9"></path><path d="M0 0 C15.64 0, 31.28 0, 40.18 0 M0 0 C9.77 0, 19.54 0, 40.18 0 M40.18 0 C40.18 4.08, 40.18 8.17, 40.18 13.55 M40.18 0 C40.18 5.11, 40.18 10.22, 40.18 13.55 M40.18 13.55 C30.39 13.55, 20.61 13.55, 0 13.55 M40.18 13.55 C30.07 13.55, 19.95 13.55, 0 13.55 M0 13.55 C0 9.66, 0 5.76, 0 0 M0 13.55 C0 9.11, 0 4.66, 0 0" stroke="#1e1e1e" stroke-width="1" fill="none"></path></g><g stroke-linecap="round" transform="translate(132.92533113453396 115.90711324640881) rotate(0 20.09165200000001 6.777028876795612)"><path d="M0 0 L40.18 0 L40.18 13.55 L0 13.55" stroke="none" stroke-width="0" fill="#a5d8ff"></path><path d="M0 0 C14.37 0, 28.74 0, 40.18 0 M0 0 C10.46 0, 20.91 0, 40.18 0 M40.18 0 C40.18 3.36, 40.18 6.72, 40.18 13.55 M40.18 0 C40.18 3.07, 40.18 6.14, 40.18 13.55 M40.18 13.55 C29.67 13.55, 19.15 13.55, 0 13.55 M40.18 13.55 C25.83 13.55, 11.47 13.55, 0 13.55 M0 13.55 C0 8.44, 0 3.32, 0 0 M0 13.55 C0 10.68, 0 7.81, 0 0" stroke="#1e1e1e" stroke-width="1" fill="none"></path></g><g stroke-linecap="round" transform="translate(92.92533089698395 115.90711462446245) rotate(0 20.09165200000001 6.777028187768735)"><path d="M0 0 L40.18 0 L40.18 13.55 L0 13.55" stroke="none" stroke-width="0" fill="#b2f2bb"></path><path d="M0 0 C12.57 0, 25.14 0, 40.18 0 M0 0 C12.38 0, 24.77 0, 40.18 0 M40.18 0 C40.18 3.9, 40.18 7.79, 40.18 13.55 M40.18 0 C40.18 4.03, 40.18 8.06, 40.18 13.55 M40.18 13.55 C24.28 13.55, 8.38 13.55, 0 13.55 M40.18 13.55 C31.01 13.55, 21.83 13.55, 0 13.55 M0 13.55 C0 8.38, 0 3.22, 0 0 M0 13.55 C0 8.26, 0 2.96, 0 0" stroke="#1e1e1e" stroke-width="1" fill="none"></path></g><g stroke-linecap="round" transform="translate(173.10863538041588 115.90711475881187) rotate(0 20.09165200000001 6.777027620594026)"><path d="M0 0 L40.18 0 L40.18 13.55 L0 13.55" stroke="none" stroke-width="0" fill="#ffec99"></path><path d="M0 0 C15.69 0, 31.37 0, 40.18 0 M0 0 C13.52 0, 27.05 0, 40.18 0 M40.18 0 C40.18 2.94, 40.18 5.87, 40.18 13.55 M40.18 0 C40.18 2.72, 40.18 5.45, 40.18 13.55 M40.18 13.55 C24.31 13.55, 8.44 13.55, 0 13.55 M40.18 13.55 C26.88 13.55, 13.57 13.55, 0 13.55 M0 13.55 C0 10.53, 0 7.51, 0 0 M0 13.55 C0 8.67, 0 3.78, 0 0" stroke="#1e1e1e" stroke-width="1" fill="none"></path></g><g stroke-linecap="round" transform="translate(52.833678970014034 115.9071130000001) rotate(0 80.27495600000003 6.777027999999973)"><path d="M0 0 C53.06 0, 106.12 0, 160.55 0 M0 0 C54.03 0, 108.06 0, 160.55 0 M160.55 0 C160.55 4.18, 160.55 8.36, 160.55 13.55 M160.55 0 C160.55 4.59, 160.55 9.18, 160.55 13.55 M160.55 13.55 C97.58 13.55, 34.61 13.55, 0 13.55 M160.55 13.55 C108.46 13.55, 56.38 13.55, 0 13.55 M0 13.55 C0 8.37, 0 3.19, 0 0 M0 13.55 C0 8.21, 0 2.87, 0 0" stroke="#e03131" stroke-width="2" fill="none"></path></g><g transform="translate(428.16257810140837 349.99646972209814) rotate(0 115.18750000000006 9.199999999999989)"><text x="0" y="14.720312499999999" font-family="Helvetica, Segoe UI Emoji" font-size="16px" fill="#1e1e1e" text-anchor="start" style="white-space: pre;" direction="ltr" dominant-baseline="alphabetic">(seq_len, num_head, head_dim)</text></g><g stroke-linecap="round" transform="translate(556.6696872609876 34.39444202873926) rotate(0 20.091652000000067 6.777027499999974)"><path d="M0 0 L40.18 0 L40.18 13.55 L0 13.55" stroke="none" stroke-width="0" fill="#ffc9c9"></path><path d="M0 0 C12.34 0, 24.68 0, 40.18 0 M0 0 C11.52 0, 23.04 0, 40.18 0 M40.18 0 C40.18 2.88, 40.18 5.77, 40.18 13.55 M40.18 0 C40.18 3.98, 40.18 7.95, 40.18 13.55 M40.18 13.55 C27.15 13.55, 14.11 13.55, 0 13.55 M40.18 13.55 C28.84 13.55, 17.5 13.55, 0 13.55 M0 13.55 C0 8.58, 0 3.6, 0 0 M0 13.55 C0 9.88, 0 6.2, 0 0" stroke="#1e1e1e" stroke-width="1" fill="none"></path></g><g stroke-linecap="round" transform="translate(556.6696864944428 47.94849620847788) rotate(0 20.091652000000067 6.777028187768735)"><path d="M0 0 L40.18 0 L40.18 13.55 L0 13.55" stroke="none" stroke-width="0" fill="#b2f2bb"></path><path d="M0 0 C10.86 0, 21.71 0, 40.18 0 M0 0 C15.37 0, 30.75 0, 40.18 0 M40.18 0 C40.18 3.17, 40.18 6.35, 40.18 13.55 M40.18 0 C40.18 4.68, 40.18 9.37, 40.18 13.55 M40.18 13.55 C25.77 13.55, 11.36 13.55, 0 13.55 M40.18 13.55 C27.62 13.55, 15.05 13.55, 0 13.55 M0 13.55 C0 9.2, 0 4.86, 0 0 M0 13.55 C0 10.13, 0 6.71, 0 0" stroke="#1e1e1e" stroke-width="1" fill="none"></path></g><g stroke-linecap="round" transform="translate(556.6696870465165 61.50255279074224) rotate(0 20.091652000000067 6.777028876795612)"><path d="M0 0 L40.18 0 L40.18 13.55 L0 13.55" stroke="none" stroke-width="0" fill="#a5d8ff"></path><path d="M0 0 C11.86 0, 23.72 0, 40.18 0 M0 0 C12.43 0, 24.85 0, 40.18 0 M40.18 0 C40.18 3.25, 40.18 6.51, 40.18 13.55 M40.18 0 C40.18 3.11, 40.18 6.22, 40.18 13.55 M40.18 13.55 C31.02 13.55, 21.86 13.55, 0 13.55 M40.18 13.55 C28.73 13.55, 17.28 13.55, 0 13.55 M0 13.55 C0 10.3, 0 7.04, 0 0 M0 13.55 C0 8.26, 0 2.97, 0 0" stroke="#1e1e1e" stroke-width="1" fill="none"></path></g><g stroke-linecap="round" transform="translate(556.6696865449566 75.05661077565253) rotate(0 20.091652000000067 6.777027620594026)"><path d="M0 0 L40.18 0 L40.18 13.55 L0 13.55" stroke="none" stroke-width="0" fill="#ffec99"></path><path d="M0 0 C9.16 0, 18.33 0, 40.18 0 M0 0 C11.98 0, 23.97 0, 40.18 0 M40.18 0 C40.18 2.91, 40.18 5.81, 40.18 13.55 M40.18 0 C40.18 4.97, 40.18 9.94, 40.18 13.55 M40.18 13.55 C25.11 13.55, 10.04 13.55, 0 13.55 M40.18 13.55 C26.63 13.55, 13.08 13.55, 0 13.55 M0 13.55 C0 10.17, 0 6.79, 0 0 M0 13.55 C0 8.55, 0 3.54, 0 0" stroke="#1e1e1e" stroke-width="1" fill="none"></path></g><g transform="translate(505.6703031085186 55.324329501309535) rotate(270 26.76880645751953 6.517530094073152)"><text x="0" y="10.428269534012092" font-family="Helvetica, Segoe UI Emoji" font-size="11.334834946214183px" fill="#1e1e1e" text-anchor="start" style="white-space: pre;" direction="ltr" dominant-baseline="alphabetic">num_head</text></g><g transform="translate(554.3395375590288 10.00000038361793) rotate(0 22.40654754638672 5.870797740657395)"><text x="0" y="9.39347580073598" font-family="Helvetica, Segoe UI Emoji" font-size="10.210083027230278px" fill="#1e1e1e" text-anchor="start" style="white-space: pre;" direction="ltr" dominant-baseline="alphabetic">head_dim</text></g><g transform="translate(371.58100457144644 174.90192049803534) rotate(0 23.42584228515625 7.6980992200228116)"><text x="0" y="12.317220236384983" font-family="Helvetica, Segoe UI Emoji" font-size="13.38799864351791px" fill="#1e1e1e" text-anchor="start" style="white-space: pre;" direction="ltr" dominant-baseline="alphabetic">seq_len</text></g><g transform="translate(472.3750778136814 49.30533338246039) rotate(0 21.295959472656193 6.89265430876992)"><text x="0" y="11.028481019517939" font-family="Helvetica, Segoe UI Emoji" font-size="11.987224884817293px" fill="#1e1e1e" text-anchor="start" style="white-space: pre;" direction="ltr" dominant-baseline="alphabetic">token_0</text></g><g stroke-linecap="round" transform="translate(556.6696876019972 132.82775444284687) rotate(0 20.091652000000067 6.777027499999974)"><path d="M0 0 L40.18 0 L40.18 13.55 L0 13.55" stroke="none" stroke-width="0" fill="#ffc9c9"></path><path d="M0 0 C13.49 0, 26.98 0, 40.18 0 M0 0 C9.12 0, 18.23 0, 40.18 0 M40.18 0 C40.18 4.07, 40.18 8.14, 40.18 13.55 M40.18 0 C40.18 3.74, 40.18 7.48, 40.18 13.55 M40.18 13.55 C25.45 13.55, 10.71 13.55, 0 13.55 M40.18 13.55 C27.79 13.55, 15.4 13.55, 0 13.55 M0 13.55 C0 10.27, 0 6.98, 0 0 M0 13.55 C0 9.05, 0 4.55, 0 0" stroke="#1e1e1e" stroke-width="1" fill="none"></path></g><g stroke-linecap="round" transform="translate(556.6696868354524 146.38180862258548) rotate(0 20.091652000000067 6.777028187768735)"><path d="M0 0 L40.18 0 L40.18 13.55 L0 13.55" stroke="none" stroke-width="0" fill="#b2f2bb"></path><path d="M0 0 C15.26 0, 30.53 0, 40.18 0 M0 0 C12.5 0, 25 0, 40.18 0 M40.18 0 C40.18 3.47, 40.18 6.93, 40.18 13.55 M40.18 0 C40.18 2.95, 40.18 5.89, 40.18 13.55 M40.18 13.55 C24.93 13.55, 9.68 13.55, 0 13.55 M40.18 13.55 C28.86 13.55, 17.53 13.55, 0 13.55 M0 13.55 C0 8.82, 0 4.08, 0 0 M0 13.55 C0 10.24, 0 6.92, 0 0" stroke="#1e1e1e" stroke-width="1" fill="none"></path></g><g stroke-linecap="round" transform="translate(556.6696873875261 159.93586520484985) rotate(0 20.091652000000067 6.777028876795612)"><path d="M0 0 L40.18 0 L40.18 13.55 L0 13.55" stroke="none" stroke-width="0" fill="#a5d8ff"></path><path d="M0 0 C14.96 0, 29.92 0, 40.18 0 M0 0 C15.36 0, 30.72 0, 40.18 0 M40.18 0 C40.18 5.32, 40.18 10.63, 40.18 13.55 M40.18 0 C40.18 3.86, 40.18 7.72, 40.18 13.55 M40.18 13.55 C26.15 13.55, 12.12 13.55, 0 13.55 M40.18 13.55 C31.49 13.55, 22.79 13.55, 0 13.55 M0 13.55 C0 10.45, 0 7.35, 0 0 M0 13.55 C0 10.8, 0 8.05, 0 0" stroke="#1e1e1e" stroke-width="1" fill="none"></path></g><g stroke-linecap="round" transform="translate(556.6696868859661 173.48992318976013) rotate(0 20.091652000000067 6.777027620594026)"><path d="M0 0 L40.18 0 L40.18 13.55 L0 13.55" stroke="none" stroke-width="0" fill="#ffec99"></path><path d="M0 0 C9.6 0, 19.2 0, 40.18 0 M0 0 C15.95 0, 31.89 0, 40.18 0 M40.18 0 C40.18 2.92, 40.18 5.84, 40.18 13.55 M40.18 0 C40.18 3.44, 40.18 6.87, 40.18 13.55 M40.18 13.55 C24.54 13.55, 8.9 13.55, 0 13.55 M40.18 13.55 C31.02 13.55, 21.86 13.55, 0 13.55 M0 13.55 C0 9.08, 0 4.61, 0 0 M0 13.55 C0 9.69, 0 5.82, 0 0" stroke="#1e1e1e" stroke-width="1" fill="none"></path></g><g transform="translate(505.6703034495282 153.75764191541714) rotate(270 26.76880645751953 6.517530094073152)"><text x="0" y="10.428269534012092" font-family="Helvetica, Segoe UI Emoji" font-size="11.334834946214183px" fill="#1e1e1e" text-anchor="start" style="white-space: pre;" direction="ltr" dominant-baseline="alphabetic">num_head</text></g><g transform="translate(554.3395379000384 108.43331279772553) rotate(0 22.40654754638672 5.870797740657395)"><text x="0" y="9.39347580073598" font-family="Helvetica, Segoe UI Emoji" font-size="10.210083027230278px" fill="#1e1e1e" text-anchor="start" style="white-space: pre;" direction="ltr" dominant-baseline="alphabetic">head_dim</text></g><g stroke-linecap="round" transform="translate(556.669688100398 277.4044097890227) rotate(0 20.091652000000067 6.777027499999974)"><path d="M0 0 L40.18 0 L40.18 13.55 L0 13.55" stroke="none" stroke-width="0" fill="#ffc9c9"></path><path d="M0 0 C14.58 0, 29.15 0, 40.18 0 M0 0 C15.83 0, 31.66 0, 40.18 0 M40.18 0 C40.18 3.81, 40.18 7.61, 40.18 13.55 M40.18 0 C40.18 5.02, 40.18 10.03, 40.18 13.55 M40.18 13.55 C27.61 13.55, 15.04 13.55, 0 13.55 M40.18 13.55 C26.42 13.55, 12.66 13.55, 0 13.55 M0 13.55 C0 10.53, 0 7.5, 0 0 M0 13.55 C0 8.82, 0 4.1, 0 0" stroke="#1e1e1e" stroke-width="1" fill="none"></path></g><g stroke-linecap="round" transform="translate(556.6696873338532 290.9584639687613) rotate(0 20.091652000000067 6.777028187768735)"><path d="M0 0 L40.18 0 L40.18 13.55 L0 13.55" stroke="none" stroke-width="0" fill="#b2f2bb"></path><path d="M0 0 C15.93 0, 31.86 0, 40.18 0 M0 0 C9.34 0, 18.69 0, 40.18 0 M40.18 0 C40.18 4.66, 40.18 9.32, 40.18 13.55 M40.18 0 C40.18 3.92, 40.18 7.83, 40.18 13.55 M40.18 13.55 C27.6 13.55, 15.01 13.55, 0 13.55 M40.18 13.55 C25.45 13.55, 10.71 13.55, 0 13.55 M0 13.55 C0 9.02, 0 4.48, 0 0 M0 13.55 C0 10.01, 0 6.46, 0 0" stroke="#1e1e1e" stroke-width="1" fill="none"></path></g><g stroke-linecap="round" transform="translate(556.6696878859269 304.51252055102566) rotate(0 20.091652000000067 6.777028876795612)"><path d="M0 0 L40.18 0 L40.18 13.55 L0 13.55" stroke="none" stroke-width="0" fill="#a5d8ff"></path><path d="M0 0 C11.82 0, 23.64 0, 40.18 0 M0 0 C8.47 0, 16.94 0, 40.18 0 M40.18 0 C40.18 5.06, 40.18 10.12, 40.18 13.55 M40.18 0 C40.18 4.12, 40.18 8.25, 40.18 13.55 M40.18 13.55 C26.11 13.55, 12.04 13.55, 0 13.55 M40.18 13.55 C27.49 13.55, 14.79 13.55, 0 13.55 M0 13.55 C0 10.61, 0 7.66, 0 0 M0 13.55 C0 8.78, 0 4.01, 0 0" stroke="#1e1e1e" stroke-width="1" fill="none"></path></g><g stroke-linecap="round" transform="translate(556.669687384367 318.06657853593595) rotate(0 20.091652000000067 6.777027620594026)"><path d="M0 0 L40.18 0 L40.18 13.55 L0 13.55" stroke="none" stroke-width="0" fill="#ffec99"></path><path d="M0 0 C9.28 0, 18.55 0, 40.18 0 M0 0 C9.98 0, 19.96 0, 40.18 0 M40.18 0 C40.18 4.05, 40.18 8.11, 40.18 13.55 M40.18 0 C40.18 5.15, 40.18 10.3, 40.18 13.55 M40.18 13.55 C26.66 13.55, 13.14 13.55, 0 13.55 M40.18 13.55 C27.37 13.55, 14.55 13.55, 0 13.55 M0 13.55 C0 9.55, 0 5.54, 0 0 M0 13.55 C0 9, 0 4.44, 0 0" stroke="#1e1e1e" stroke-width="1" fill="none"></path></g><g transform="translate(505.670303947929 298.33429726159295) rotate(270 26.76880645751953 6.517530094073152)"><text x="0" y="10.428269534012092" font-family="Helvetica, Segoe UI Emoji" font-size="11.334834946214183px" fill="#1e1e1e" text-anchor="start" style="white-space: pre;" direction="ltr" dominant-baseline="alphabetic">num_head</text></g><g transform="translate(554.3395383984392 253.00996814390135) rotate(0 22.40654754638672 5.870797740657395)"><text x="0" y="9.39347580073598" font-family="Helvetica, Segoe UI Emoji" font-size="10.210083027230278px" fill="#1e1e1e" text-anchor="start" style="white-space: pre;" direction="ltr" dominant-baseline="alphabetic">head_dim</text></g><g transform="translate(472.3750774511054 150.85090598648924) rotate(0 21.295959472656193 6.89265430876992)"><text x="0" y="11.028481019517939" font-family="Helvetica, Segoe UI Emoji" font-size="11.987224884817293px" fill="#1e1e1e" text-anchor="start" style="white-space: pre;" direction="ltr" dominant-baseline="alphabetic">token_1</text></g><g transform="translate(474.4054008363951 298.58364072020265) rotate(0 21.295959472656193 6.89265430876992)"><text x="0" y="11.028481019517939" font-family="Helvetica, Segoe UI Emoji" font-size="11.987224884817293px" fill="#1e1e1e" text-anchor="start" style="white-space: pre;" direction="ltr" dominant-baseline="alphabetic">token_n</text></g><g stroke-linecap="round"><g transform="translate(461.8576975452088 61.653508998687926) rotate(0 -13.393405565571356 120.94651086485572)"><path d="M0 0 C-6.39 27.28, -12.77 54.56, -28.41 121.35 M0 0 C-7.78 33.22, -15.55 66.44, -28.41 121.35 M-28.41 121.35 C-17.7 164.33, -6.99 207.31, 1.62 241.89 M-28.41 121.35 C-19.48 157.19, -10.55 193.03, 1.62 241.89" stroke="#1e1e1e" stroke-width="1" fill="none"></path></g></g><mask></mask><g transform="translate(573.2270728386742 190.29811932633572) rotate(0 2.22265625 27.600000000000023)"><text x="0" y="14.720312499999999" font-family="Helvetica, Segoe UI Emoji" font-size="16px" fill="#1e1e1e" text-anchor="start" style="white-space: pre;" direction="ltr" dominant-baseline="alphabetic">.</text><text x="0" y="33.1203125" font-family="Helvetica, Segoe UI Emoji" font-size="16px" fill="#1e1e1e" text-anchor="start" style="white-space: pre;" direction="ltr" dominant-baseline="alphabetic">.</text><text x="0" y="51.520312499999996" font-family="Helvetica, Segoe UI Emoji" font-size="16px" fill="#1e1e1e" text-anchor="start" style="white-space: pre;" direction="ltr" dominant-baseline="alphabetic">.</text></g><g transform="translate(47.5279323293928 349.9964702921403) rotate(0 79.16015625 9.199999999999989)"><text x="0" y="14.720312499999999" font-family="Helvetica, Segoe UI Emoji" font-size="16px" fill="#1e1e1e" text-anchor="start" style="white-space: pre;" direction="ltr" dominant-baseline="alphabetic">(seq_len, hidden_dim)</text></g><g stroke-linecap="round"><g transform="translate(258.39241253856494 192.6807480000001) rotate(0 34.04405928458158 0)"><path d="M0 0 C17.43 0, 34.86 0, 68.09 0 M0 0 C21.99 0, 43.99 0, 68.09 0" stroke="#1e1e1e" stroke-width="1" fill="none"></path></g><g transform="translate(258.39241253856494 192.6807480000001) rotate(0 34.04405928458158 0)"><path d="M68.09 0 L54.49 6.34 L54.49 -6.34 L68.09 0" stroke="none" stroke-width="0" fill="#1e1e1e" fill-rule="evenodd"></path><path d="M68.09 0 C64.61 1.62, 61.13 3.25, 54.49 6.34 M68.09 0 C63.7 2.05, 59.31 4.1, 54.49 6.34 M54.49 6.34 C54.49 3.5, 54.49 0.65, 54.49 -6.34 M54.49 6.34 C54.49 3.26, 54.49 0.18, 54.49 -6.34 M54.49 -6.34 C57.92 -4.74, 61.35 -3.14, 68.09 0 M54.49 -6.34 C57.72 -4.83, 60.95 -3.33, 68.09 0 M68.09 0 C68.09 0, 68.09 0, 68.09 0 M68.09 0 C68.09 0, 68.09 0, 68.09 0" stroke="#1e1e1e" stroke-width="1" fill="none"></path></g></g><mask></mask><g transform="translate(263.94603007165927 157.81884350935263) rotate(0 28.91015625 9.199999999999989)"><text x="0" y="14.720312499999999" font-family="Helvetica, Segoe UI Emoji" font-size="16px" fill="#1e1e1e" text-anchor="start" style="white-space: pre;" direction="ltr" dominant-baseline="alphabetic">reshape</text></g><g stroke-linecap="round" transform="translate(871.7680843901652 116.91627628338335) rotate(0 20.091652006514664 73.86636767100975)"><path d="M0 0 L40.18 0 L40.18 147.73 L0 147.73" stroke="none" stroke-width="0" fill="#ffc9c9"></path><path d="M0 0 C11.89 0, 23.79 0, 40.18 0 M0 0 C15.17 0, 30.35 0, 40.18 0 M40.18 0 C40.18 39.37, 40.18 78.74, 40.18 147.73 M40.18 0 C40.18 35.07, 40.18 70.13, 40.18 147.73 M40.18 147.73 C27.66 147.73, 15.14 147.73, 0 147.73 M40.18 147.73 C27.57 147.73, 14.96 147.73, 0 147.73 M0 147.73 C0 103.86, 0 59.98, 0 0 M0 147.73 C0 117.47, 0 87.21, 0 0" stroke="#1e1e1e" stroke-width="1" fill="none"></path></g><g transform="translate(882.96129889668 181.58264395439312) rotate(0 8.8984375 9.199999999999989)"><text x="8.8984375" y="14.720312499999999" font-family="Helvetica, Segoe UI Emoji" font-size="16px" fill="#1e1e1e" text-anchor="middle" style="white-space: pre;" direction="ltr" dominant-baseline="alphabetic">q0</text></g><g stroke-linecap="round" transform="translate(919.9844193901648 115.94722628338343) rotate(0 20.091652006514664 73.86636767100975)"><path d="M0 0 L40.18 0 L40.18 147.73 L0 147.73" stroke="none" stroke-width="0" fill="#b2f2bb"></path><path d="M0 0 C12.01 0, 24.02 0, 40.18 0 M0 0 C10.99 0, 21.99 0, 40.18 0 M40.18 0 C40.18 45.76, 40.18 91.52, 40.18 147.73 M40.18 0 C40.18 42.32, 40.18 84.64, 40.18 147.73 M40.18 147.73 C24.71 147.73, 9.25 147.73, 0 147.73 M40.18 147.73 C24.72 147.73, 9.25 147.73, 0 147.73 M0 147.73 C0 109.04, 0 70.34, 0 0 M0 147.73 C0 104.65, 0 61.57, 0 0" stroke="#1e1e1e" stroke-width="1" fill="none"></path></g><g transform="translate(931.1776338966796 180.6135939543932) rotate(0 8.8984375 9.199999999999989)"><text x="8.8984375" y="14.720312499999999" font-family="Helvetica, Segoe UI Emoji" font-size="16px" fill="#1e1e1e" text-anchor="middle" style="white-space: pre;" direction="ltr" dominant-baseline="alphabetic">q1</text></g><g stroke-linecap="round" transform="translate(968.0174513901646 115.9472282833832) rotate(0 20.091652006514664 73.86636767100975)"><path d="M0 0 L40.18 0 L40.18 147.73 L0 147.73" stroke="none" stroke-width="0" fill="#a5d8ff"></path><path d="M0 0 C12.41 0, 24.82 0, 40.18 0 M0 0 C12.99 0, 25.98 0, 40.18 0 M40.18 0 C40.18 34.42, 40.18 68.85, 40.18 147.73 M40.18 0 C40.18 35.68, 40.18 71.36, 40.18 147.73 M40.18 147.73 C27.83 147.73, 15.47 147.73, 0 147.73 M40.18 147.73 C25.15 147.73, 10.12 147.73, 0 147.73 M0 147.73 C0 99.05, 0 50.37, 0 0 M0 147.73 C0 91.47, 0 35.2, 0 0" stroke="#1e1e1e" stroke-width="1" fill="none"></path></g><g transform="translate(979.2106658966794 180.61359595439296) rotate(0 8.8984375 9.199999999999989)"><text x="8.8984375" y="14.720312499999999" font-family="Helvetica, Segoe UI Emoji" font-size="16px" fill="#1e1e1e" text-anchor="middle" style="white-space: pre;" direction="ltr" dominant-baseline="alphabetic">q2</text></g><g stroke-linecap="round" transform="translate(1016.7572473901645 115.94722628338343) rotate(0 20.091652006514664 73.86636767100975)"><path d="M0 0 L40.18 0 L40.18 147.73 L0 147.73" stroke="none" stroke-width="0" fill="#ffec99"></path><path d="M0 0 C9.15 0, 18.31 0, 40.18 0 M0 0 C10.65 0, 21.29 0, 40.18 0 M40.18 0 C40.18 46.36, 40.18 92.73, 40.18 147.73 M40.18 0 C40.18 37.34, 40.18 74.68, 40.18 147.73 M40.18 147.73 C25.8 147.73, 11.43 147.73, 0 147.73 M40.18 147.73 C31.41 147.73, 22.64 147.73, 0 147.73 M0 147.73 C0 117.61, 0 87.49, 0 0 M0 147.73 C0 92.89, 0 38.05, 0 0" stroke="#1e1e1e" stroke-width="1" fill="none"></path></g><g transform="translate(1027.9504618966794 180.6135939543932) rotate(0 8.8984375 9.199999999999989)"><text x="8.8984375" y="14.720312499999999" font-family="Helvetica, Segoe UI Emoji" font-size="16px" fill="#1e1e1e" text-anchor="middle" style="white-space: pre;" direction="ltr" dominant-baseline="alphabetic">q3</text></g><g stroke-linecap="round"><g transform="translate(698.831602672822 191.26716773355963) rotate(0 34.044059284581635 0)"><path d="M0 0 C18.37 0, 36.74 0, 68.09 0 M0 0 C16.11 0, 32.23 0, 68.09 0" stroke="#1e1e1e" stroke-width="1" fill="none"></path></g><g transform="translate(698.831602672822 191.26716773355963) rotate(0 34.044059284581635 0)"><path d="M68.09 0 L54.49 6.34 L54.49 -6.34 L68.09 0" stroke="none" stroke-width="0" fill="#1e1e1e" fill-rule="evenodd"></path><path d="M68.09 0 C64.42 1.71, 60.75 3.42, 54.49 6.34 M68.09 0 C64.87 1.5, 61.65 3, 54.49 6.34 M54.49 6.34 C54.49 2.07, 54.49 -2.2, 54.49 -6.34 M54.49 6.34 C54.49 1.8, 54.49 -2.75, 54.49 -6.34 M54.49 -6.34 C57.68 -4.85, 60.86 -3.37, 68.09 0 M54.49 -6.34 C58.66 -4.4, 62.83 -2.45, 68.09 0 M68.09 0 C68.09 0, 68.09 0, 68.09 0 M68.09 0 C68.09 0, 68.09 0, 68.09 0" stroke="#1e1e1e" stroke-width="1" fill="none"></path></g></g><mask></mask><g transform="translate(686.6343922059162 150.85090624291195) rotate(0 53.8046875 9.199999999999989)"><text x="0" y="14.720312499999999" font-family="Helvetica, Segoe UI Emoji" font-size="16px" fill="#1e1e1e" text-anchor="start" style="white-space: pre;" direction="ltr" dominant-baseline="alphabetic">transpose(0, 1)</text></g><g transform="translate(853.3682340829322 349.99646965625413) rotate(0 115.1875 9.199999999999989)"><text x="0" y="14.720312499999999" font-family="Helvetica, Segoe UI Emoji" font-size="16px" fill="#1e1e1e" text-anchor="start" style="white-space: pre;" direction="ltr" dominant-baseline="alphabetic">(num_head, seq_len, head_dim)</text></g><g transform="translate(815.513547503995 183.35511824529988) rotate(270 28.488693237304688 9.365993018649135)"><text x="0" y="14.98590696818842" font-family="Helvetica, Segoe UI Emoji" font-size="16.288683510694135px" fill="#1e1e1e" text-anchor="start" style="white-space: pre;" direction="ltr" dominant-baseline="alphabetic">seq_len</text></g><g transform="translate(855.4819032352656 88.61066634948122) rotate(0 30.19561767578125 7.911284255515682)"><text x="0" y="12.658323534513098" font-family="Helvetica, Segoe UI Emoji" font-size="13.758755226983773px" fill="#1e1e1e" text-anchor="start" style="white-space: pre;" direction="ltr" dominant-baseline="alphabetic">head_dim</text></g><g stroke-linecap="round" transform="translate(463.4811409700144 10) rotate(0 80.08746291714561 43.26097550000003)"><path d="M0 0 C58.14 0, 116.28 0, 160.17 0 M0 0 C33.43 0, 66.86 0, 160.17 0 M160.17 0 C160.17 30.23, 160.17 60.45, 160.17 86.52 M160.17 0 C160.17 32.16, 160.17 64.32, 160.17 86.52 M160.17 86.52 C118.63 86.52, 77.09 86.52, 0 86.52 M160.17 86.52 C103.67 86.52, 47.17 86.52, 0 86.52 M0 86.52 C0 59.29, 0 32.05, 0 0 M0 86.52 C0 54.78, 0 23.03, 0 0" stroke="#e03131" stroke-width="2" fill="none"></path></g></svg>