<svg version="1.1" xmlns="http://www.w3.org/2000/svg" viewBox="0 0 1128.320284073408 378.3964693384796" width="1128.320284073408" height="378.3964693384796">
  <!-- svg-source:excalidraw -->
  
  <defs>
    <style class="style-fonts">
      @font-face {
        font-family: "Virgil";
        src: url("https://excalidraw.com/Virgil.woff2");
      }
      @font-face {
        font-family: "Cascadia";
        src: url("https://excalidraw.com/Cascadia.woff2");
      }
      @font-face {
        font-family: "Assistant";
        src: url("https://excalidraw.com/Assistant-Regular.woff2");
      }
    </style>
    
  </defs>
  <rect x="0" y="0" width="1128.320284073408" height="378.3964693384796" fill="#ffffff"></rect><g stroke-linecap="round" transform="translate(29.166402227623166 107.23438587564124) rotate(0 20.091652006514664 73.86636767100981)"><path d="M0 0 L40.18 0 L40.18 147.73 L0 147.73" stroke="none" stroke-width="0" fill="#ffc9c9"></path><path d="M0 0 C12.74 0, 25.48 0, 40.18 0 M0 0 C10.42 0, 20.84 0, 40.18 0 M40.18 0 C40.18 57.43, 40.18 114.86, 40.18 147.73 M40.18 0 C40.18 42.98, 40.18 85.96, 40.18 147.73 M40.18 147.73 C27.5 147.73, 14.81 147.73, 0 147.73 M40.18 147.73 C29.56 147.73, 18.93 147.73, 0 147.73 M0 147.73 C0 115.48, 0 83.23, 0 0 M0 147.73 C0 93.93, 0 40.13, 0 0" stroke="#1e1e1e" stroke-width="1" fill="none"></path></g><g transform="translate(40.80883548413772 171.90075354665123) rotate(0 8.44921875 9.200000000000045)"><text x="8.44921875" y="14.720312499999999" font-family="Helvetica, Segoe UI Emoji" font-size="16px" fill="#1e1e1e" text-anchor="middle" style="white-space: pre;" direction="ltr" dominant-baseline="alphabetic">s0</text></g><g stroke-linecap="round" transform="translate(125.18750021730307 107.23438557399459) rotate(0 20.091652006514664 73.86636767100981)"><path d="M0 0 L40.18 0 L40.18 147.73 L0 147.73" stroke="none" stroke-width="0" fill="#a5d8ff"></path><path d="M0 0 C13.76 0, 27.52 0, 40.18 0 M0 0 C12.98 0, 25.97 0, 40.18 0 M40.18 0 C40.18 50.24, 40.18 100.48, 40.18 147.73 M40.18 0 C40.18 42.57, 40.18 85.13, 40.18 147.73 M40.18 147.73 C30 147.73, 19.82 147.73, 0 147.73 M40.18 147.73 C26.12 147.73, 12.05 147.73, 0 147.73 M0 147.73 C0 101.24, 0 54.75, 0 0 M0 147.73 C0 92.88, 0 38.02, 0 0" stroke="#1e1e1e" stroke-width="1" fill="none"></path></g><g transform="translate(136.82993347381762 171.90075324500367) rotate(0 8.44921875 9.200000000000045)"><text x="8.44921875" y="14.720312499999999" font-family="Helvetica, Segoe UI Emoji" font-size="16px" fill="#1e1e1e" text-anchor="middle" style="white-space: pre;" direction="ltr" dominant-baseline="alphabetic">s2</text></g><g stroke-linecap="round" transform="translate(77.17695121730299 107.23438730747239) rotate(0 20.091652006514664 73.86636767100981)"><path d="M0 0 L40.18 0 L40.18 147.73 L0 147.73" stroke="none" stroke-width="0" fill="#b2f2bb"></path><path d="M0 0 C12.98 0, 25.97 0, 40.18 0 M0 0 C13.66 0, 27.33 0, 40.18 0 M40.18 0 C40.18 42.57, 40.18 85.13, 40.18 147.73 M40.18 0 C40.18 37.43, 40.18 74.87, 40.18 147.73 M40.18 147.73 C26.12 147.73, 12.05 147.73, 0 147.73 M40.18 147.73 C27.54 147.73, 14.89 147.73, 0 147.73 M0 147.73 C0 92.88, 0 38.02, 0 0 M0 147.73 C0 104.71, 0 61.68, 0 0" stroke="#1e1e1e" stroke-width="1" fill="none"></path></g><g transform="translate(88.81938447381776 171.90075497848147) rotate(0 8.44921875 9.200000000000045)"><text x="8.44921875" y="14.720312499999999" font-family="Helvetica, Segoe UI Emoji" font-size="16px" fill="#1e1e1e" text-anchor="middle" style="white-space: pre;" direction="ltr" dominant-baseline="alphabetic">s1</text></g><g stroke-linecap="round" transform="translate(173.89590691565627 107.23438812767745) rotate(0 20.091652006514664 73.86636767100981)"><path d="M0 0 L40.18 0 L40.18 147.73 L0 147.73" stroke="none" stroke-width="0" fill="#ffec99"></path><path d="M0 0 C9.51 0, 19.03 0, 40.18 0 M0 0 C14.08 0, 28.15 0, 40.18 0 M40.18 0 C40.18 31.01, 40.18 62.03, 40.18 147.73 M40.18 0 C40.18 32.37, 40.18 64.74, 40.18 147.73 M40.18 147.73 C30.35 147.73, 20.51 147.73, 0 147.73 M40.18 147.73 C25.94 147.73, 11.69 147.73, 0 147.73 M0 147.73 C0 104.56, 0 61.39, 0 0 M0 147.73 C0 118.14, 0 88.55, 0 0" stroke="#1e1e1e" stroke-width="1" fill="none"></path></g><g transform="translate(185.53834017217105 171.90075579868653) rotate(0 8.44921875 9.200000000000045)"><text x="8.44921875" y="14.720312499999999" font-family="Helvetica, Segoe UI Emoji" font-size="16px" fill="#1e1e1e" text-anchor="middle" style="white-space: pre;" direction="ltr" dominant-baseline="alphabetic">s3</text></g><g stroke-linecap="round"><g transform="translate(291.4140105499813 189.1982346294467) rotate(0 34.04405928458158 0)"><path d="M0 0 C15.94 0, 31.88 0, 68.09 0 M0 0 C22.69 0, 45.38 0, 68.09 0" stroke="#1e1e1e" stroke-width="1" fill="none"></path></g><g transform="translate(291.4140105499813 189.1982346294467) rotate(0 34.04405928458158 0)"><path d="M68.09 0 L54.49 6.34 L54.49 -6.34 L68.09 0" stroke="none" stroke-width="0" fill="#1e1e1e" fill-rule="evenodd"></path><path d="M68.09 0 C64.91 1.48, 61.72 2.97, 54.49 6.34 M68.09 0 C63.56 2.11, 59.03 4.22, 54.49 6.34 M54.49 6.34 C54.49 3.49, 54.49 0.63, 54.49 -6.34 M54.49 6.34 C54.49 1.77, 54.49 -2.8, 54.49 -6.34 M54.49 -6.34 C59.41 -4.04, 64.34 -1.75, 68.09 0 M54.49 -6.34 C58.32 -4.56, 62.14 -2.77, 68.09 0 M68.09 0 C68.09 0, 68.09 0, 68.09 0 M68.09 0 C68.09 0, 68.09 0, 68.09 0" stroke="#1e1e1e" stroke-width="1" fill="none"></path></g></g><mask></mask><g transform="translate(273.8760380830755 149.73993713879963) rotate(0 51.58203125 9.200000000000045)"><text x="0" y="14.720312499999999" font-family="Helvetica, Segoe UI Emoji" font-size="16px" fill="#1e1e1e" text-anchor="start" style="white-space: pre;" direction="ltr" dominant-baseline="alphabetic">transpose(1,2)</text></g><g stroke-linecap="round" transform="translate(621.9256106400286 34.39444164512133) rotate(0 20.091651999999954 6.777027499999917)"><path d="M0 0 L40.18 0 L40.18 13.55 L0 13.55" stroke="none" stroke-width="0" fill="#ffc9c9"></path><path d="M0 0 C12.06 0, 24.11 0, 40.18 0 M0 0 C11.61 0, 23.22 0, 40.18 0 M40.18 0 C40.18 4.62, 40.18 9.24, 40.18 13.55 M40.18 0 C40.18 3.26, 40.18 6.52, 40.18 13.55 M40.18 13.55 C25.1 13.55, 10.02 13.55, 0 13.55 M40.18 13.55 C27.77 13.55, 15.35 13.55, 0 13.55 M0 13.55 C0 8.48, 0 3.41, 0 0 M0 13.55 C0 10.36, 0 7.16, 0 0" stroke="#1e1e1e" stroke-width="1" fill="none"></path></g><g stroke-linecap="round" transform="translate(621.9256098734837 47.94849582485949) rotate(0 20.091651999999954 6.777028187768792)"><path d="M0 0 L40.18 0 L40.18 13.55 L0 13.55" stroke="none" stroke-width="0" fill="#b2f2bb"></path><path d="M0 0 C10.12 0, 20.24 0, 40.18 0 M0 0 C13 0, 26.01 0, 40.18 0 M40.18 0 C40.18 4.97, 40.18 9.94, 40.18 13.55 M40.18 0 C40.18 5.01, 40.18 10.02, 40.18 13.55 M40.18 13.55 C31.92 13.55, 23.66 13.55, 0 13.55 M40.18 13.55 C29.72 13.55, 19.26 13.55, 0 13.55 M0 13.55 C0 10.45, 0 7.34, 0 0 M0 13.55 C0 8.82, 0 4.09, 0 0" stroke="#1e1e1e" stroke-width="1" fill="none"></path></g><g stroke-linecap="round" transform="translate(621.9256104255575 61.50255240712431) rotate(0 20.091651999999954 6.777028876795612)"><path d="M0 0 L40.18 0 L40.18 13.55 L0 13.55" stroke="none" stroke-width="0" fill="#a5d8ff"></path><path d="M0 0 C10.58 0, 21.17 0, 40.18 0 M0 0 C11.98 0, 23.95 0, 40.18 0 M40.18 0 C40.18 4.09, 40.18 8.18, 40.18 13.55 M40.18 0 C40.18 5.18, 40.18 10.36, 40.18 13.55 M40.18 13.55 C28.72 13.55, 17.26 13.55, 0 13.55 M40.18 13.55 C24.77 13.55, 9.35 13.55, 0 13.55 M0 13.55 C0 9.27, 0 4.98, 0 0 M0 13.55 C0 9.95, 0 6.34, 0 0" stroke="#1e1e1e" stroke-width="1" fill="none"></path></g><g stroke-linecap="round" transform="translate(621.9256099239975 75.0566103920346) rotate(0 20.091651999999954 6.777027620594026)"><path d="M0 0 L40.18 0 L40.18 13.55 L0 13.55" stroke="none" stroke-width="0" fill="#ffec99"></path><path d="M0 0 C9.07 0, 18.14 0, 40.18 0 M0 0 C15.28 0, 30.55 0, 40.18 0 M40.18 0 C40.18 4.23, 40.18 8.46, 40.18 13.55 M40.18 0 C40.18 4.02, 40.18 8.04, 40.18 13.55 M40.18 13.55 C25.04 13.55, 9.9 13.55, 0 13.55 M40.18 13.55 C29 13.55, 17.81 13.55, 0 13.55 M0 13.55 C0 10.62, 0 7.68, 0 0 M0 13.55 C0 8.2, 0 2.86, 0 0" stroke="#1e1e1e" stroke-width="1" fill="none"></path></g><g transform="translate(570.9262264875596 55.324329117691605) rotate(270 26.76880645751953 6.517530094073209)"><text x="0" y="10.428269534012092" font-family="Helvetica, Segoe UI Emoji" font-size="11.334834946214183px" fill="#1e1e1e" text-anchor="start" style="white-space: pre;" direction="ltr" dominant-baseline="alphabetic">num_head</text></g><g transform="translate(619.5954609380698 10) rotate(0 22.40654754638672 5.870797740657395)"><text x="0" y="9.39347580073598" font-family="Helvetica, Segoe UI Emoji" font-size="10.210083027230278px" fill="#1e1e1e" text-anchor="start" style="white-space: pre;" direction="ltr" dominant-baseline="alphabetic">head_dim</text></g><g transform="translate(436.8369279504874 174.90192011441695) rotate(0 23.42584228515625 7.698099220022868)"><text x="0" y="12.317220236384983" font-family="Helvetica, Segoe UI Emoji" font-size="13.38799864351791px" fill="#1e1e1e" text-anchor="start" style="white-space: pre;" direction="ltr" dominant-baseline="alphabetic">seq_len</text></g><g transform="translate(488.191416480449 349.9964693384795) rotate(0 115.1875 9.200000000000045)"><text x="0" y="14.720312499999999" font-family="Helvetica, Segoe UI Emoji" font-size="16px" fill="#1e1e1e" text-anchor="start" style="white-space: pre;" direction="ltr" dominant-baseline="alphabetic">(seq_len, num_head, head_dim)</text></g><g transform="translate(537.6310011927222 49.30533299884246) rotate(0 21.29595947265625 6.89265430876992)"><text x="0" y="11.028481019517939" font-family="Helvetica, Segoe UI Emoji" font-size="11.987224884817293px" fill="#1e1e1e" text-anchor="start" style="white-space: pre;" direction="ltr" dominant-baseline="alphabetic">token_0</text></g><g stroke-linecap="round" transform="translate(621.9256109810382 132.82775405922848) rotate(0 20.091651999999954 6.777027500000031)"><path d="M0 0 L40.18 0 L40.18 13.55 L0 13.55" stroke="none" stroke-width="0" fill="#ffc9c9"></path><path d="M0 0 C12.12 0, 24.25 0, 40.18 0 M0 0 C15.35 0, 30.7 0, 40.18 0 M40.18 0 C40.18 3.87, 40.18 7.73, 40.18 13.55 M40.18 0 C40.18 5.2, 40.18 10.4, 40.18 13.55 M40.18 13.55 C27.48 13.55, 14.77 13.55, 0 13.55 M40.18 13.55 C29.49 13.55, 18.79 13.55, 0 13.55 M0 13.55 C0 9.77, 0 5.99, 0 0 M0 13.55 C0 8.51, 0 3.48, 0 0" stroke="#1e1e1e" stroke-width="1" fill="none"></path></g><g stroke-linecap="round" transform="translate(621.9256102144933 146.38180823896664) rotate(0 20.091651999999954 6.777028187768792)"><path d="M0 0 L40.18 0 L40.18 13.55 L0 13.55" stroke="none" stroke-width="0" fill="#b2f2bb"></path><path d="M0 0 C12.55 0, 25.09 0, 40.18 0 M0 0 C11.93 0, 23.85 0, 40.18 0 M40.18 0 C40.18 5.11, 40.18 10.21, 40.18 13.55 M40.18 0 C40.18 3.77, 40.18 7.55, 40.18 13.55 M40.18 13.55 C31.48 13.55, 22.77 13.55, 0 13.55 M40.18 13.55 C24.32 13.55, 8.46 13.55, 0 13.55 M0 13.55 C0 8.35, 0 3.16, 0 0 M0 13.55 C0 8.51, 0 3.47, 0 0" stroke="#1e1e1e" stroke-width="1" fill="none"></path></g><g stroke-linecap="round" transform="translate(621.925610766567 159.93586482123146) rotate(0 20.091651999999954 6.777028876795612)"><path d="M0 0 L40.18 0 L40.18 13.55 L0 13.55" stroke="none" stroke-width="0" fill="#a5d8ff"></path><path d="M0 0 C9.4 0, 18.8 0, 40.18 0 M0 0 C9.04 0, 18.07 0, 40.18 0 M40.18 0 C40.18 2.93, 40.18 5.85, 40.18 13.55 M40.18 0 C40.18 3.82, 40.18 7.65, 40.18 13.55 M40.18 13.55 C28.61 13.55, 17.04 13.55, 0 13.55 M40.18 13.55 C31.07 13.55, 21.96 13.55, 0 13.55 M0 13.55 C0 9.19, 0 4.82, 0 0 M0 13.55 C0 9.94, 0 6.32, 0 0" stroke="#1e1e1e" stroke-width="1" fill="none"></path></g><g stroke-linecap="round" transform="translate(621.9256102650071 173.48992280614175) rotate(0 20.091651999999954 6.777027620594026)"><path d="M0 0 L40.18 0 L40.18 13.55 L0 13.55" stroke="none" stroke-width="0" fill="#ffec99"></path><path d="M0 0 C13.81 0, 27.62 0, 40.18 0 M0 0 C9.91 0, 19.83 0, 40.18 0 M40.18 0 C40.18 5.19, 40.18 10.37, 40.18 13.55 M40.18 0 C40.18 3.37, 40.18 6.74, 40.18 13.55 M40.18 13.55 C30.74 13.55, 21.29 13.55, 0 13.55 M40.18 13.55 C31.43 13.55, 22.67 13.55, 0 13.55 M0 13.55 C0 10.21, 0 6.88, 0 0 M0 13.55 C0 10.29, 0 7.02, 0 0" stroke="#1e1e1e" stroke-width="1" fill="none"></path></g><g transform="translate(570.9262268285692 153.75764153179853) rotate(270 26.76880645751953 6.517530094073209)"><text x="0" y="10.428269534012092" font-family="Helvetica, Segoe UI Emoji" font-size="11.334834946214183px" fill="#1e1e1e" text-anchor="start" style="white-space: pre;" direction="ltr" dominant-baseline="alphabetic">num_head</text></g><g transform="translate(619.5954612790794 108.4333124141076) rotate(0 22.40654754638672 5.870797740657395)"><text x="0" y="9.39347580073598" font-family="Helvetica, Segoe UI Emoji" font-size="10.210083027230278px" fill="#1e1e1e" text-anchor="start" style="white-space: pre;" direction="ltr" dominant-baseline="alphabetic">head_dim</text></g><g stroke-linecap="round" transform="translate(621.925611479439 277.40440940540384) rotate(0 20.091651999999954 6.777027500000031)"><path d="M0 0 L40.18 0 L40.18 13.55 L0 13.55" stroke="none" stroke-width="0" fill="#ffc9c9"></path><path d="M0 0 C8.26 0, 16.52 0, 40.18 0 M0 0 C10.46 0, 20.92 0, 40.18 0 M40.18 0 C40.18 3.1, 40.18 6.21, 40.18 13.55 M40.18 0 C40.18 4.73, 40.18 9.46, 40.18 13.55 M40.18 13.55 C31.85 13.55, 23.51 13.55, 0 13.55 M40.18 13.55 C24.49 13.55, 8.81 13.55, 0 13.55 M0 13.55 C0 10.51, 0 7.46, 0 0 M0 13.55 C0 9.67, 0 5.79, 0 0" stroke="#1e1e1e" stroke-width="1" fill="none"></path></g><g stroke-linecap="round" transform="translate(621.9256107128941 290.9584635851429) rotate(0 20.091651999999954 6.777028187768792)"><path d="M0 0 L40.18 0 L40.18 13.55 L0 13.55" stroke="none" stroke-width="0" fill="#b2f2bb"></path><path d="M0 0 C11.46 0, 22.92 0, 40.18 0 M0 0 C15.42 0, 30.83 0, 40.18 0 M40.18 0 C40.18 4.29, 40.18 8.57, 40.18 13.55 M40.18 0 C40.18 3.61, 40.18 7.22, 40.18 13.55 M40.18 13.55 C28.97 13.55, 17.76 13.55, 0 13.55 M40.18 13.55 C25.24 13.55, 10.3 13.55, 0 13.55 M0 13.55 C0 8.9, 0 4.24, 0 0 M0 13.55 C0 9.92, 0 6.29, 0 0" stroke="#1e1e1e" stroke-width="1" fill="none"></path></g><g stroke-linecap="round" transform="translate(621.9256112649679 304.5125201674068) rotate(0 20.091651999999954 6.777028876795612)"><path d="M0 0 L40.18 0 L40.18 13.55 L0 13.55" stroke="none" stroke-width="0" fill="#a5d8ff"></path><path d="M0 0 C15.14 0, 30.28 0, 40.18 0 M0 0 C11.19 0, 22.37 0, 40.18 0 M40.18 0 C40.18 2.94, 40.18 5.87, 40.18 13.55 M40.18 0 C40.18 5.35, 40.18 10.7, 40.18 13.55 M40.18 13.55 C24.77 13.55, 9.36 13.55, 0 13.55 M40.18 13.55 C25.23 13.55, 10.27 13.55, 0 13.55 M0 13.55 C0 8.32, 0 3.09, 0 0 M0 13.55 C0 8.93, 0 4.3, 0 0" stroke="#1e1e1e" stroke-width="1" fill="none"></path></g><g stroke-linecap="round" transform="translate(621.9256107634079 318.0665781523171) rotate(0 20.091651999999954 6.777027620594026)"><path d="M0 0 L40.18 0 L40.18 13.55 L0 13.55" stroke="none" stroke-width="0" fill="#ffec99"></path><path d="M0 0 C8.67 0, 17.35 0, 40.18 0 M0 0 C11.33 0, 22.67 0, 40.18 0 M40.18 0 C40.18 3.9, 40.18 7.81, 40.18 13.55 M40.18 0 C40.18 3.07, 40.18 6.15, 40.18 13.55 M40.18 13.55 C27.24 13.55, 14.3 13.55, 0 13.55 M40.18 13.55 C29.46 13.55, 18.74 13.55, 0 13.55 M0 13.55 C0 9.23, 0 4.91, 0 0 M0 13.55 C0 9.59, 0 5.63, 0 0" stroke="#1e1e1e" stroke-width="1" fill="none"></path></g><g transform="translate(570.92622732697 298.3342968779739) rotate(270 26.76880645751953 6.517530094073209)"><text x="0" y="10.428269534012092" font-family="Helvetica, Segoe UI Emoji" font-size="11.334834946214183px" fill="#1e1e1e" text-anchor="start" style="white-space: pre;" direction="ltr" dominant-baseline="alphabetic">num_head</text></g><g transform="translate(619.5954617774802 253.0099677602825) rotate(0 22.40654754638672 5.870797740657508)"><text x="0" y="9.39347580073598" font-family="Helvetica, Segoe UI Emoji" font-size="10.210083027230278px" fill="#1e1e1e" text-anchor="start" style="white-space: pre;" direction="ltr" dominant-baseline="alphabetic">head_dim</text></g><g transform="translate(537.6310008301463 150.85090560287108) rotate(0 21.29595947265625 6.892654308770034)"><text x="0" y="11.028481019517939" font-family="Helvetica, Segoe UI Emoji" font-size="11.987224884817293px" fill="#1e1e1e" text-anchor="start" style="white-space: pre;" direction="ltr" dominant-baseline="alphabetic">token_1</text></g><g transform="translate(539.6613242154359 298.58364033658427) rotate(0 21.29595947265625 6.892654308770034)"><text x="0" y="11.028481019517939" font-family="Helvetica, Segoe UI Emoji" font-size="11.987224884817293px" fill="#1e1e1e" text-anchor="start" style="white-space: pre;" direction="ltr" dominant-baseline="alphabetic">token_n</text></g><g stroke-linecap="round"><g transform="translate(527.1136209242496 61.65350861506977) rotate(0 -13.393405565571356 120.94651086485578)"><path d="M0 0 C-8.98 38.37, -17.96 76.73, -28.41 121.35 M0 0 C-7.56 32.31, -15.13 64.62, -28.41 121.35 M-28.41 121.35 C-20.03 154.99, -11.65 188.62, 1.62 241.89 M-28.41 121.35 C-17.24 166.17, -6.08 210.98, 1.62 241.89" stroke="#1e1e1e" stroke-width="1" fill="none"></path></g></g><mask></mask><g transform="translate(638.4829962177151 190.29811894271688) rotate(0 2.22265625 27.59999999999991)"><text x="0" y="14.720312499999999" font-family="Helvetica, Segoe UI Emoji" font-size="16px" fill="#1e1e1e" text-anchor="start" style="white-space: pre;" direction="ltr" dominant-baseline="alphabetic">.</text><text x="0" y="33.1203125" font-family="Helvetica, Segoe UI Emoji" font-size="16px" fill="#1e1e1e" text-anchor="start" style="white-space: pre;" direction="ltr" dominant-baseline="alphabetic">.</text><text x="0" y="51.520312499999996" font-family="Helvetica, Segoe UI Emoji" font-size="16px" fill="#1e1e1e" text-anchor="start" style="white-space: pre;" direction="ltr" dominant-baseline="alphabetic">.</text></g><g stroke-linecap="round" transform="translate(957.7703720603789 110.47428137054658) rotate(0 20.091652006514664 73.86636767100981)"><path d="M0 0 L40.18 0 L40.18 147.73 L0 147.73" stroke="none" stroke-width="0" fill="#ffc9c9"></path><path d="M0 0 C13.25 0, 26.51 0, 40.18 0 M0 0 C11.63 0, 23.27 0, 40.18 0 M40.18 0 C40.18 34.75, 40.18 69.5, 40.18 147.73 M40.18 0 C40.18 32.93, 40.18 65.87, 40.18 147.73 M40.18 147.73 C29.2 147.73, 18.21 147.73, 0 147.73 M40.18 147.73 C29.79 147.73, 19.39 147.73, 0 147.73 M0 147.73 C0 109.94, 0 72.14, 0 0 M0 147.73 C0 106.24, 0 64.74, 0 0" stroke="#1e1e1e" stroke-width="1" fill="none"></path></g><g transform="translate(969.4128053168937 175.14064904155612) rotate(0 8.44921875 9.200000000000045)"><text x="8.44921875" y="14.720312499999999" font-family="Helvetica, Segoe UI Emoji" font-size="16px" fill="#1e1e1e" text-anchor="middle" style="white-space: pre;" direction="ltr" dominant-baseline="alphabetic">s0</text></g><g stroke-linecap="round" transform="translate(997.9536760603786 110.47428137054658) rotate(0 20.091652006514664 73.86636767100981)"><path d="M0 0 L40.18 0 L40.18 147.73 L0 147.73" stroke="none" stroke-width="0" fill="#b2f2bb"></path><path d="M0 0 C10.77 0, 21.53 0, 40.18 0 M0 0 C14.14 0, 28.27 0, 40.18 0 M40.18 0 C40.18 49.83, 40.18 99.67, 40.18 147.73 M40.18 0 C40.18 49.25, 40.18 98.51, 40.18 147.73 M40.18 147.73 C30.76 147.73, 21.33 147.73, 0 147.73 M40.18 147.73 C26.75 147.73, 13.32 147.73, 0 147.73 M0 147.73 C0 113.25, 0 78.78, 0 0 M0 147.73 C0 113.91, 0 80.09, 0 0" stroke="#1e1e1e" stroke-width="1" fill="none"></path></g><g transform="translate(1009.5961093168934 175.14064904155612) rotate(0 8.44921875 9.200000000000045)"><text x="8.44921875" y="14.720312499999999" font-family="Helvetica, Segoe UI Emoji" font-size="16px" fill="#1e1e1e" text-anchor="middle" style="white-space: pre;" direction="ltr" dominant-baseline="alphabetic">s1</text></g><g stroke-linecap="round" transform="translate(1037.9536760603787 110.4742803705467) rotate(0 20.091652006514664 73.86636767100981)"><path d="M0 0 L40.18 0 L40.18 147.73 L0 147.73" stroke="none" stroke-width="0" fill="#a5d8ff"></path><path d="M0 0 C9.43 0, 18.86 0, 40.18 0 M0 0 C10.61 0, 21.22 0, 40.18 0 M40.18 0 C40.18 46.06, 40.18 92.11, 40.18 147.73 M40.18 0 C40.18 45.69, 40.18 91.39, 40.18 147.73 M40.18 147.73 C28.27 147.73, 16.35 147.73, 0 147.73 M40.18 147.73 C30.16 147.73, 20.13 147.73, 0 147.73 M0 147.73 C0 97.86, 0 47.99, 0 0 M0 147.73 C0 97.85, 0 47.96, 0 0" stroke="#1e1e1e" stroke-width="1" fill="none"></path></g><g transform="translate(1049.5961093168935 175.1406480415567) rotate(0 8.44921875 9.200000000000045)"><text x="8.44921875" y="14.720312499999999" font-family="Helvetica, Segoe UI Emoji" font-size="16px" fill="#1e1e1e" text-anchor="middle" style="white-space: pre;" direction="ltr" dominant-baseline="alphabetic">s2</text></g><g stroke-linecap="round" transform="translate(1078.1369800603788 110.47428137054658) rotate(0 20.091652006514664 73.86636767100981)"><path d="M0 0 L40.18 0 L40.18 147.73 L0 147.73" stroke="none" stroke-width="0" fill="#ffec99"></path><path d="M0 0 C15.99 0, 31.99 0, 40.18 0 M0 0 C16.04 0, 32.08 0, 40.18 0 M40.18 0 C40.18 42.6, 40.18 85.2, 40.18 147.73 M40.18 0 C40.18 55.29, 40.18 110.58, 40.18 147.73 M40.18 147.73 C27.08 147.73, 13.99 147.73, 0 147.73 M40.18 147.73 C27.97 147.73, 15.75 147.73, 0 147.73 M0 147.73 C0 96.52, 0 45.3, 0 0 M0 147.73 C0 117.1, 0 86.47, 0 0" stroke="#1e1e1e" stroke-width="1" fill="none"></path></g><g transform="translate(1089.7794133168936 175.14064904155612) rotate(0 8.44921875 9.200000000000045)"><text x="8.44921875" y="14.720312499999999" font-family="Helvetica, Segoe UI Emoji" font-size="16px" fill="#1e1e1e" text-anchor="middle" style="white-space: pre;" direction="ltr" dominant-baseline="alphabetic">s3</text></g><g transform="translate(895.9056448717091 183.02149949239038) rotate(270 28.488693237304688 9.365993018649078)"><text x="0" y="14.98590696818842" font-family="Helvetica, Segoe UI Emoji" font-size="16.288683510694135px" fill="#1e1e1e" text-anchor="start" style="white-space: pre;" direction="ltr" dominant-baseline="alphabetic">seq_len</text></g><g transform="translate(945.3737141441292 80.73115682404341) rotate(0 30.19561767578125 7.911284255515625)"><text x="0" y="12.658323534513098" font-family="Helvetica, Segoe UI Emoji" font-size="13.758755226983773px" fill="#1e1e1e" text-anchor="start" style="white-space: pre;" direction="ltr" dominant-baseline="alphabetic">head_dim</text></g><g transform="translate(959.9999714197576 341.8989906626871) rotate(0 79.16015625 9.200000000000045)"><text x="0" y="14.720312499999999" font-family="Helvetica, Segoe UI Emoji" font-size="16px" fill="#1e1e1e" text-anchor="start" style="white-space: pre;" direction="ltr" dominant-baseline="alphabetic">(seq_len, hidden_dim)</text></g><g transform="translate(10 341.89899050411486) rotate(0 115.1875 9.200000000000045)"><text x="0" y="14.720312499999999" font-family="Helvetica, Segoe UI Emoji" font-size="16px" fill="#1e1e1e" text-anchor="start" style="white-space: pre;" direction="ltr" dominant-baseline="alphabetic">(num_head, seq_len, head_dim)</text></g><g stroke-linecap="round"><g transform="translate(765.7269799000993 181.10075524510785) rotate(0 34.04405928458152 0)"><path d="M0 0 C15.34 0, 30.67 0, 68.09 0 M0 0 C24.56 0, 49.12 0, 68.09 0" stroke="#1e1e1e" stroke-width="1" fill="none"></path></g><g transform="translate(765.7269799000993 181.10075524510785) rotate(0 34.04405928458152 0)"><path d="M68.09 0 L54.49 6.34 L54.49 -6.34 L68.09 0" stroke="none" stroke-width="0" fill="#1e1e1e" fill-rule="evenodd"></path><path d="M68.09 0 C65.03 1.43, 61.96 2.86, 54.49 6.34 M68.09 0 C63.18 2.29, 58.28 4.57, 54.49 6.34 M54.49 6.34 C54.49 2.54, 54.49 -1.25, 54.49 -6.34 M54.49 6.34 C54.49 3.33, 54.49 0.32, 54.49 -6.34 M54.49 -6.34 C58.22 -4.6, 61.95 -2.86, 68.09 0 M54.49 -6.34 C57.8 -4.8, 61.1 -3.26, 68.09 0 M68.09 0 C68.09 0, 68.09 0, 68.09 0 M68.09 0 C68.09 0, 68.09 0, 68.09 0" stroke="#1e1e1e" stroke-width="1" fill="none"></path></g></g><mask></mask><g transform="translate(771.2805974331933 146.2388507544606) rotate(0 28.91015625 9.200000000000045)"><text x="0" y="14.720312499999999" font-family="Helvetica, Segoe UI Emoji" font-size="16px" fill="#1e1e1e" text-anchor="start" style="white-space: pre;" direction="ltr" dominant-baseline="alphabetic">reshape</text></g></svg>