<svg version="1.1" xmlns="http://www.w3.org/2000/svg" viewBox="0 0 723.0761499898096 199.4202987596891" width="723.0761499898096" height="199.4202987596891">
  <!-- svg-source:excalidraw -->
  
  <defs>
    <style class="style-fonts">
      @font-face {
        font-family: "Virgil";
        src: url("https://excalidraw.com/Virgil.woff2");
      }
      @font-face {
        font-family: "Cascadia";
        src: url("https://excalidraw.com/Cascadia.woff2");
      }
      @font-face {
        font-family: "Assistant";
        src: url("https://excalidraw.com/Assistant-Regular.woff2");
      }
    </style>
    
  </defs>
  <rect x="0" y="0" width="723.0761499898096" height="199.4202987596891" fill="#ffffff"></rect><g stroke-linecap="round" transform="translate(169.79981339406356 41.68756341766948) rotate(0 20.091652006514664 73.86636767100981)"><path d="M0 0 L40.18 0 L40.18 147.73 L0 147.73" stroke="none" stroke-width="0" fill="#ffc9c9"></path><path d="M0 0 C13.14 0, 26.28 0, 40.18 0 M0 0 C12.56 0, 25.11 0, 40.18 0 M40.18 0 C40.18 49.21, 40.18 98.42, 40.18 147.73 M40.18 0 C40.18 56.07, 40.18 112.15, 40.18 147.73 M40.18 147.73 C24.9 147.73, 9.61 147.73, 0 147.73 M40.18 147.73 C26.79 147.73, 13.41 147.73, 0 147.73 M0 147.73 C0 109.33, 0 70.93, 0 0 M0 147.73 C0 118.11, 0 88.49, 0 0" stroke="#1e1e1e" stroke-width="1" fill="none"></path></g><g transform="translate(180.99302790057823 106.35393108867902) rotate(0 8.8984375 9.200000000000045)"><text x="8.8984375" y="14.720312499999999" font-family="Helvetica, Segoe UI Emoji" font-size="16px" fill="#1e1e1e" text-anchor="middle" style="white-space: pre;" direction="ltr" dominant-baseline="alphabetic">q0</text></g><g stroke-linecap="round" transform="translate(526.6527540297501 41.68756334517684) rotate(0 20.091652006514664 73.86636767100981)"><path d="M0 0 L40.18 0 L40.18 147.73 L0 147.73" stroke="none" stroke-width="0" fill="#ffc9c9"></path><path d="M0 0 C13.73 0, 27.45 0, 40.18 0 M0 0 C15.33 0, 30.67 0, 40.18 0 M40.18 0 C40.18 47.4, 40.18 94.81, 40.18 147.73 M40.18 0 C40.18 50.37, 40.18 100.73, 40.18 147.73 M40.18 147.73 C25.39 147.73, 10.6 147.73, 0 147.73 M40.18 147.73 C27.06 147.73, 13.93 147.73, 0 147.73 M0 147.73 C0 99.5, 0 51.28, 0 0 M0 147.73 C0 93.96, 0 40.18, 0 0" stroke="#1e1e1e" stroke-width="1" fill="none"></path></g><g transform="translate(538.2951872862646 106.35393101618683) rotate(0 8.44921875 9.200000000000045)"><text x="8.44921875" y="14.720312499999999" font-family="Helvetica, Segoe UI Emoji" font-size="16px" fill="#1e1e1e" text-anchor="middle" style="white-space: pre;" direction="ltr" dominant-baseline="alphabetic">v0</text></g><g stroke-linecap="round" transform="translate(255.96604132660354 91.76337579595338) rotate(0 74.38368402521468 19.514838416476323)"><path d="M0 0 L148.77 0 L148.77 39.03 L0 39.03" stroke="none" stroke-width="0" fill="#ffc9c9"></path><path d="M0 0 C41.19 0, 82.37 0, 148.77 0 M0 0 C56.21 0, 112.42 0, 148.77 0 M148.77 0 C148.77 9.61, 148.77 19.22, 148.77 39.03 M148.77 0 C148.77 11.7, 148.77 23.41, 148.77 39.03 M148.77 39.03 C98.38 39.03, 47.99 39.03, 0 39.03 M148.77 39.03 C103.44 39.03, 58.11 39.03, 0 39.03 M0 39.03 C0 28.23, 0 17.42, 0 0 M0 39.03 C0 27.47, 0 15.92, 0 0" stroke="#1e1e1e" stroke-width="1" fill="none"></path></g><g transform="translate(313.2598816018183 102.07821421242966) rotate(0 17.089843749999943 9.200000000000045)"><text x="17.08984375" y="14.720312499999999" font-family="Helvetica, Segoe UI Emoji" font-size="16px" fill="#1e1e1e" text-anchor="middle" style="white-space: pre;" direction="ltr" dominant-baseline="alphabetic">k0^T</text></g><g transform="translate(93.53470809289627 106.22830148022149) rotate(270 28.488693237304688 9.365993018649078)"><text x="0" y="14.98590696818842" font-family="Helvetica, Segoe UI Emoji" font-size="16.288683510694135px" fill="#1e1e1e" text-anchor="start" style="white-space: pre;" direction="ltr" dominant-baseline="alphabetic">seq_len</text></g><g transform="translate(156.73098448518033 10) rotate(0 30.19561767578125 7.911284255515625)"><text x="0" y="12.658323534513098" font-family="Helvetica, Segoe UI Emoji" font-size="13.758755226983773px" fill="#1e1e1e" text-anchor="start" style="white-space: pre;" direction="ltr" dominant-baseline="alphabetic">head_dim</text></g><g stroke-linecap="round" transform="translate(672.8928459767802 41.687563012358396) rotate(0 20.091652006514664 73.8663676710097)"><path d="M0 0 L40.18 0 L40.18 147.73 L0 147.73" stroke="none" stroke-width="0" fill="#ffc9c9"></path><path d="M0 0 C13.28 0, 26.55 0, 40.18 0 M0 0 C14.58 0, 29.16 0, 40.18 0 M40.18 0 C40.18 53.88, 40.18 107.75, 40.18 147.73 M40.18 0 C40.18 40.83, 40.18 81.67, 40.18 147.73 M40.18 147.73 C28.54 147.73, 16.9 147.73, 0 147.73 M40.18 147.73 C27.48 147.73, 14.78 147.73, 0 147.73 M0 147.73 C0 116.16, 0 84.58, 0 0 M0 147.73 C0 96.11, 0 44.5, 0 0" stroke="#1e1e1e" stroke-width="1" fill="none"></path></g><g transform="translate(684.535279233295 106.35393068336816) rotate(0 8.44921875 9.200000000000045)"><text x="8.44921875" y="14.720312499999999" font-family="Helvetica, Segoe UI Emoji" font-size="16px" fill="#1e1e1e" text-anchor="middle" style="white-space: pre;" direction="ltr" dominant-baseline="alphabetic">s0</text></g><g transform="translate(615.1925770577126 102.0782135676709) rotate(0 4.671875 9.200000000000045)"><text x="0" y="14.720312499999999" font-family="Helvetica, Segoe UI Emoji" font-size="16px" fill="#1e1e1e" text-anchor="start" style="white-space: pre;" direction="ltr" dominant-baseline="alphabetic">=</text></g><g transform="translate(228.97457956992798 106.35393100982219) rotate(0 4 9.200000000000045)"><text x="0" y="14.720312499999999" font-family="Helvetica, Segoe UI Emoji" font-size="16px" fill="#1e1e1e" text-anchor="start" style="white-space: pre;" direction="ltr" dominant-baseline="alphabetic">x</text></g><g transform="translate(491.57340785093504 102.0782136730486) rotate(0 4 9.200000000000045)"><text x="0" y="14.720312499999999" font-family="Helvetica, Segoe UI Emoji" font-size="16px" fill="#1e1e1e" text-anchor="start" style="white-space: pre;" direction="ltr" dominant-baseline="alphabetic">x</text></g><g transform="translate(10 102.07821362336472) rotate(0 32.89453125 9.200000000000045)"><text x="0" y="14.720312499999999" font-family="Helvetica, Segoe UI Emoji" font-size="16px" fill="#1e1e1e" text-anchor="start" style="white-space: pre;" direction="ltr" dominant-baseline="alphabetic">softmax (</text></g><g transform="translate(441.6017560558586 102.07821383964051) rotate(0 2.6640625 9.200000000000045)"><text x="0" y="14.720312499999999" font-family="Helvetica, Segoe UI Emoji" font-size="16px" fill="#1e1e1e" text-anchor="start" style="white-space: pre;" direction="ltr" dominant-baseline="alphabetic">)</text></g></svg>